<?xml version="1.0" encoding="UTF-8"?>
<svg version="1.1" xmlns="http://www.w3.org/2000/svg" width="120" height="120">
<path d="M0 0 C11.47807962 -1.67777034 11.47807962 -1.67777034 17 0 C20.65065947 2.77603309 22.78909345 6.61267316 25.01953125 10.546875 C26.77665848 13.61058401 28.38517065 15.67309568 31 18 C36.14558038 16.37056621 41.10184431 14.56799761 46.0625 12.4375 C50.68127747 10.47407603 55.09495729 9.03760519 60 8 C60 6.68 60 5.36 60 4 C62.31 4.33 64.62 4.66 67 5 C67.66 3.35 68.32 1.7 69 0 C70.65 0 72.3 0 74 0 C74.495 0.99 74.495 0.99 75 2 C75.33 1.34 75.66 0.68 76 0 C79.875 0.875 79.875 0.875 81 2 C81.2632246 5.94836905 81.08997373 8.60379269 79 12 C77.35 12 75.7 12 74 12 C73.85691406 12.71542969 73.71382813 13.43085938 73.56640625 14.16796875 C72.7109375 18.4453125 71.85546875 22.72265625 71 27 C72.65 27.33 74.3 27.66 76 28 C76 29.32 76 30.64 76 32 C76.639375 32.9075 77.27875 33.815 77.9375 34.75 C79.90416239 37.84898316 80.25470675 38.75968412 80.5 42.1875 C80.60219169 46.02863088 80.60219169 46.02863088 83.0625 48 C83.701875 48.33 84.34125 48.66 85 49 C84.5708585 51.89670511 83.98153419 53.02012526 81.95703125 55.2265625 C79.50844829 58.6966102 79.66570417 60.50565882 79.9375 64.6875 C80.15234375 68.13671875 80.15234375 68.13671875 80 71 C76.77208445 73.1519437 75.71599191 73.20086443 72 73 C72.598125 73.598125 73.19625 74.19625 73.8125 74.8125 C74.534375 75.534375 75.25625 76.25625 76 77 C76.598125 77.495 77.19625 77.99 77.8125 78.5 C78.204375 78.995 78.59625 79.49 79 80 C78.75 81.9375 78.75 81.9375 78 84 C77.07892239 86.59576416 76.78446007 87.52723134 77.94921875 90.08203125 C79.35547211 93.98712886 79.38361614 97.62864215 79.5 101.75 C79.54427789 103.28670308 79.59636525 104.82320095 79.65625 106.359375 C79.67494141 107.03452148 79.69363281 107.70966797 79.71289062 108.40527344 C80.14614335 112.32075811 81.14542813 116.15442656 82 120 C63.85 120 45.7 120 27 120 C26.34 118.02 25.68 116.04 25 114 C20.54889223 110.01742989 15.40454197 108.78163706 9.78125 107 C4.81049651 105.21276279 1.91558015 102.29664443 -1 98 C-5.40626052 99.17452852 -5.40626052 99.17452852 -8.875 102 C-10.16342041 103.90807602 -10.16342041 103.90807602 -10 106 C-4.06 106.33 1.88 106.66 8 107 C10 112 10 112 9.5390625 114.01953125 C8.69270833 115.6796875 7.84635417 117.33984375 7 119 C5.741875 118.835 4.48375 118.67 3.1875 118.5 C-0.39229651 118.03051849 -3.17350732 117.68514564 -6.625 119 C-12.32382184 120.6885398 -16.99070834 121.00464583 -22.375 118.3125 C-26.71574996 114.48850599 -28.12146632 111.49273441 -28.9375 105.8125 C-29.30309935 99.93906695 -28.45918373 94.86709948 -25 90 C-21.89495811 87.97896682 -18.7545478 87 -15 87 C-15 85.68 -15 84.36 -15 83 C-16.8253125 83.0928125 -16.8253125 83.0928125 -18.6875 83.1875 C-22.57750046 83.20822824 -24.83632249 82.37275814 -28 80 C-27.25 75.25 -27.25 75.25 -25 73 C-22.3984375 72.8046875 -22.3984375 72.8046875 -19.375 72.875 C-18.37210938 72.89304687 -17.36921875 72.91109375 -16.3359375 72.9296875 C-15.56507812 72.95289062 -14.79421875 72.97609375 -14 73 C-14 72.34 -14 71.68 -14 71 C-14.8353125 70.76216797 -14.8353125 70.76216797 -15.6875 70.51953125 C-21.14527349 68.85085388 -26.80344865 67.0286893 -31 63 C-31.5 59.6875 -31.5 59.6875 -31 57 C-28.02416728 55.2557759 -26.33008094 54.80428545 -22.9375 55.375 C-17.61190159 56.12945978 -12.36914237 56.09032202 -7 56 C-7.48453052 50.31043702 -9.01755112 46.34860697 -11.875 41.4375 C-12.26631104 40.75147705 -12.65762207 40.0654541 -13.06079102 39.35864258 C-16.7510788 33.07627239 -21.09309966 27.41131309 -25.71484375 21.79296875 C-29.19541447 17.53893787 -30.3586533 15.49935064 -30 10 C-29 9 -29 9 -26.375 8.5625 C-18.94953394 9.52506042 -14.61398667 16.45269415 -10.28515625 22.046875 C-9 24 -9 24 -9 26 C-2.93949386 27.0812391 -2.93949386 27.0812391 3 26 C4.21071086 21.65915861 4.61242963 17.48040624 4 13 C2.12802546 10.30566683 2.12802546 10.30566683 0 8 C-1.35064935 2.7012987 -1.35064935 2.7012987 0 0 Z " fill="#936401" transform="translate(34,0)"/>
<path d="M0 0 C1.65 0 3.3 0 5 0 C5.495 0.99 5.495 0.99 6 2 C6.33 1.34 6.66 0.68 7 0 C10.875 0.875 10.875 0.875 12 2 C12.2632246 5.94836905 12.08997373 8.60379269 10 12 C8.35 12 6.7 12 5 12 C4.85691406 12.71542969 4.71382813 13.43085938 4.56640625 14.16796875 C3.7109375 18.4453125 2.85546875 22.72265625 2 27 C3.65 27.33 5.3 27.66 7 28 C6.505 29.485 6.505 29.485 6 31 C5.38125 30.814375 4.7625 30.62875 4.125 30.4375 C1.95839822 29.76313824 1.95839822 29.76313824 0 31 C0 29.68 0 28.36 0 27 C-0.66 27 -1.32 27 -2 27 C-2.09667969 27.74121094 -2.19335938 28.48242188 -2.29296875 29.24609375 C-3.09375961 32.36519629 -4.13940678 33.72188782 -6.3125 36.0625 C-6.94027344 36.74699219 -7.56804687 37.43148437 -8.21484375 38.13671875 C-10.11504505 40.12007984 -12.05785572 42.05785572 -14 44 C-15.15570969 46.31141937 -15.09909464 47.74032513 -15.1875 50.3125 C-15.7720872 57.19651829 -18.88855614 62.92935418 -22 69 C-22.66 69 -23.32 69 -24 69 C-25.68561267 74.21443596 -26.38512698 78.97539135 -26.625 84.4375 C-26.66367188 85.16904297 -26.70234375 85.90058594 -26.7421875 86.65429688 C-26.83533984 88.43583532 -26.91870286 90.21788122 -27 92 C-27.99 91.01 -27.99 91.01 -29 90 C-28.01 93.96 -27.02 97.92 -26 102 C-32.42353253 102.71372584 -36.25122214 101.43266621 -41.6640625 97.91015625 C-47.03144382 93.52111032 -50.28581841 87.68530821 -52 81 C-50.68 81.33 -49.36 81.66 -48 82 C-48.804375 81.2575 -49.60875 80.515 -50.4375 79.75 C-54.66587881 75.21222762 -54.23607112 70.79783771 -54.140625 64.80859375 C-53.76355806 57.27772905 -51.8492097 53.1899485 -46.75390625 47.56640625 C-43.62874508 44.77533804 -40.56024666 44.90188183 -36.5625 44.75 C-32.1947177 44.38797787 -32.1947177 44.38797787 -28.5625 42.0625 C-26.78995594 38.58831364 -25.34485888 35.07216057 -24.02734375 31.40234375 C-22.97136009 28.93302835 -21.69128537 27.0745795 -20 25 C-22.33524782 27.25740623 -24.18705073 29.2805761 -26 32 C-27.32 31.01 -28.64 30.02 -30 29 C-30.98871094 29.46277344 -31.97742188 29.92554687 -32.99609375 30.40234375 C-36.95082939 32.09666194 -40.83173685 32.88219651 -45.0625 33.5625 C-49.86873645 34.35823451 -54.38340583 35.42081568 -59 37 C-61.875 37.125 -61.875 37.125 -64 37 C-60.25524489 29.51048979 -53.33093107 27.11307524 -46.09375 23.58203125 C-45.1965625 23.14246094 -44.299375 22.70289062 -43.375 22.25 C-42.55773437 21.86328125 -41.74046875 21.4765625 -40.8984375 21.078125 C-38.8386607 20.14141647 -38.8386607 20.14141647 -38 18 C-36.35546875 17.32421875 -36.35546875 17.32421875 -34.1875 16.6875 C-30.32505891 15.48202476 -26.6527452 14.04052458 -22.9375 12.4375 C-18.31872253 10.47407603 -13.90504271 9.03760519 -9 8 C-9 6.68 -9 5.36 -9 4 C-6.69 4.33 -4.38 4.66 -2 5 C-1.34 3.35 -0.68 1.7 0 0 Z " fill="#6E422E" transform="translate(103,0)"/>
<path d="M0 0 C0.66 0 1.32 0 2 0 C2.66 0.66 3.32 1.32 4 2 C4.99 2.33 5.98 2.66 7 3 C7 3.66 7 4.32 7 5 C7.928125 5.37125 7.928125 5.37125 8.875 5.75 C11.51392178 7.30230693 12.01127112 8.10986942 13 11 C13.13937555 12.35276266 13.26309354 13.70718848 13.375 15.0625 C13.59804428 19.01034135 13.59804428 19.01034135 16.0625 21 C16.701875 21.33 17.34125 21.66 18 22 C17.5708585 24.89670511 16.98153419 26.02012526 14.95703125 28.2265625 C12.50844829 31.6966102 12.66570417 33.50565882 12.9375 37.6875 C13.15234375 41.13671875 13.15234375 41.13671875 13 44 C9.77208445 46.1519437 8.71599191 46.20086443 5 46 C5.598125 46.598125 6.19625 47.19625 6.8125 47.8125 C7.534375 48.534375 8.25625 49.25625 9 50 C9.598125 50.495 10.19625 50.99 10.8125 51.5 C11.204375 51.995 11.59625 52.49 12 53 C11.75 54.9375 11.75 54.9375 11 57 C10.07892239 59.59576416 9.78446007 60.52723134 10.94921875 63.08203125 C12.35547211 66.98712886 12.38361614 70.62864215 12.5 74.75 C12.54427789 76.28670308 12.59636525 77.82320095 12.65625 79.359375 C12.67494141 80.03452148 12.69363281 80.70966797 12.71289062 81.40527344 C13.14614335 85.32075811 14.14542813 89.15442656 15 93 C1.47 93 -12.06 93 -26 93 C-24.515 87.555 -24.515 87.555 -23 82 C-23 80.35 -23 78.7 -23 77 C-23.66386719 76.96261719 -24.32773438 76.92523438 -25.01171875 76.88671875 C-30.07036379 76.5100897 -33.84180819 76.18794705 -38 73 C-37.01 72.505 -37.01 72.505 -36 72 C-35.46375 72.28875 -34.9275 72.5775 -34.375 72.875 C-30.96691549 74.48935582 -27.7461871 74.62538129 -24 75 C-24.45052734 73.96939453 -24.45052734 73.96939453 -24.91015625 72.91796875 C-25.29042969 72.01691406 -25.67070313 71.11585937 -26.0625 70.1875 C-26.44535156 69.29417969 -26.82820313 68.40085937 -27.22265625 67.48046875 C-28 65 -28 65 -27 62 C-26.67 62 -26.34 62 -26 62 C-25.96261719 61.14277344 -25.92523438 60.28554687 -25.88671875 59.40234375 C-25.51561297 52.94801388 -25.06490552 47.73004075 -22 42 C-21.34 42 -20.68 42 -20 42 C-19.80664062 41.39671875 -19.61328125 40.7934375 -19.4140625 40.171875 C-19.15367188 39.37265625 -18.89328125 38.5734375 -18.625 37.75 C-18.36976562 36.96109375 -18.11453125 36.1721875 -17.8515625 35.359375 C-17 33 -17 33 -15.921875 31.0078125 C-14.82535506 28.61962923 -14.7309814 26.74192527 -14.625 24.125 C-14.07160805 17.52313111 -10.96016229 13.29880732 -6 9 C-5.34 9 -4.68 9 -4 9 C-2.47700477 6.06279492 -1.19899698 3.0831351 0 0 Z " fill="#0B0603" transform="translate(101,27)"/>
<path d="M0 0 C11.49565682 -1.68033963 11.49565682 -1.68033963 17 0 C21.65155425 3.54746342 24.19228287 8.99620537 27 14 C27.99888951 15.00110926 28.99842644 16.00157604 30 17 C30 17.99 30 18.98 30 20 C30.99 20.33 31.98 20.66 33 21 C32.34515625 21.21914063 31.6903125 21.43828125 31.015625 21.6640625 C19.52015759 25.65825033 8.48585203 30.01886396 1 40 C0.34 39.01 -0.32 38.02 -1 37 C-3.56282742 36.27034634 -3.56282742 36.27034634 -6 36 C-5.54625 37.051875 -5.0925 38.10375 -4.625 39.1875 C-4.35171875 39.83074219 -4.0784375 40.47398438 -3.796875 41.13671875 C-3.17194277 42.59795735 -2.52717761 44.05071642 -1.875 45.5 C-0.77741594 48.63595445 -0.41875363 51.70979288 0 55 C0.30903983 56.33917261 0.62942911 57.67653254 1 59 C2.65 59 4.3 59 6 59 C6.495 58.01 6.495 58.01 7 57 C8.32 57.33 9.64 57.66 11 58 C10.52949219 58.53109375 10.05898438 59.0621875 9.57421875 59.609375 C8.95160156 60.31578125 8.32898437 61.0221875 7.6875 61.75 C7.07261719 62.44609375 6.45773438 63.1421875 5.82421875 63.859375 C3.98060937 65.93512438 3.98060937 65.93512438 2.58203125 68.14453125 C0.58777258 70.48347661 -1.09651613 70.99991667 -4 71.9375 C-7.16343082 73.13011802 -8.75271005 73.73022914 -11.0625 76.25 C-12.2824177 79.82842526 -12.56889972 83.243269 -13 87 C-13.99 87.99 -13.99 87.99 -15 89 C-17.125 88.625 -17.125 88.625 -19 88 C-17.02 87.505 -17.02 87.505 -15 87 C-15 85.68 -15 84.36 -15 83 C-16.8253125 83.0928125 -16.8253125 83.0928125 -18.6875 83.1875 C-22.57750046 83.20822824 -24.83632249 82.37275814 -28 80 C-27.25 75.25 -27.25 75.25 -25 73 C-22.3984375 72.8046875 -22.3984375 72.8046875 -19.375 72.875 C-18.37210938 72.89304687 -17.36921875 72.91109375 -16.3359375 72.9296875 C-15.56507812 72.95289062 -14.79421875 72.97609375 -14 73 C-14 72.34 -14 71.68 -14 71 C-14.8353125 70.76216797 -14.8353125 70.76216797 -15.6875 70.51953125 C-21.14527349 68.85085388 -26.80344865 67.0286893 -31 63 C-31.5 59.6875 -31.5 59.6875 -31 57 C-28.02416728 55.2557759 -26.33008094 54.80428545 -22.9375 55.375 C-17.61190159 56.12945978 -12.36914237 56.09032202 -7 56 C-7.48453052 50.31043702 -9.01755112 46.34860697 -11.875 41.4375 C-12.26631104 40.75147705 -12.65762207 40.0654541 -13.06079102 39.35864258 C-16.7510788 33.07627239 -21.09309966 27.41131309 -25.71484375 21.79296875 C-29.19541447 17.53893787 -30.3586533 15.49935064 -30 10 C-29 9 -29 9 -26.375 8.5625 C-18.94953394 9.52506042 -14.61398667 16.45269415 -10.28515625 22.046875 C-9 24 -9 24 -9 26 C-2.93949386 27.0812391 -2.93949386 27.0812391 3 26 C4.21071086 21.65915861 4.61242963 17.48040624 4 13 C2.12802546 10.30566683 2.12802546 10.30566683 0 8 C-1.35064935 2.7012987 -1.35064935 2.7012987 0 0 Z " fill="#E50807" transform="translate(34,0)"/>
<path d="M0 0 C0.46025877 6.11486652 -2.3636452 10.26944794 -6 15 C-9.25 17.0625 -9.25 17.0625 -12 18 C-12.99 18.495 -12.99 18.495 -14 19 C-14.39859599 15.51228512 -14.1750037 14.25083864 -12.125 11.3125 C-10.77903748 9.84777608 -9.40659718 8.40659718 -8 7 C-8.99 7 -9.98 7 -11 7 C-11.66 8.65 -12.32 10.3 -13 12 C-14.32 11.01 -15.64 10.02 -17 9 C-16.7525 9.86625 -16.505 10.7325 -16.25 11.625 C-15.96817947 15.42957709 -16.73253196 16.28492503 -18.85498047 19.26953125 C-20.07650906 21.11562819 -21.02168979 22.97859463 -21.96484375 24.98046875 C-22.29033203 25.66947266 -22.61582031 26.35847656 -22.95117188 27.06835938 C-23.61252126 28.48927836 -24.26609776 29.91383933 -24.91210938 31.34179688 C-27.01486095 35.75052454 -28.59120313 37.64025805 -33 40 C-34.45942788 44.16979393 -35 47.22100265 -35 51.625 C-35 55.17703682 -35.71667897 57.71148985 -37 61 C-35.35 61.33 -33.7 61.66 -32 62 C-32 63.65 -32 65.3 -32 67 C-31.01 66.505 -31.01 66.505 -30 66 C-29.875 72.75 -29.875 72.75 -31 75 C-30.34 75 -29.68 75 -29 75 C-28.67 73.35 -28.34 71.7 -28 70 C-24.66226291 73.64116773 -24.02135098 77.28607242 -23 82 C-29.42353253 82.71372584 -33.25122214 81.43266621 -38.6640625 77.91015625 C-44.03144382 73.52111032 -47.28581841 67.68530821 -49 61 C-47.68 61.33 -46.36 61.66 -45 62 C-45.804375 61.2575 -46.60875 60.515 -47.4375 59.75 C-51.66587881 55.21222762 -51.23607112 50.79783771 -51.140625 44.80859375 C-50.76355806 37.27772905 -48.8492097 33.1899485 -43.75390625 27.56640625 C-40.62874508 24.77533804 -37.56024666 24.90188183 -33.5625 24.75 C-29.1947177 24.38797787 -29.1947177 24.38797787 -25.5625 22.0625 C-24.20705223 19.40582238 -23.20566227 16.85613531 -22.1875 14.0625 C-19.90099254 8.08377232 -16.6432752 4.8216376 -10.9453125 1.97265625 C-7.23589184 0.45389345 -4.05523957 -0.38017871 0 0 Z " fill="#C2986D" transform="translate(100,20)"/>
<path d="M0 0 C1.53106781 5.00541399 1.10319465 9.92983828 0 15 C-2.25 17.875 -2.25 17.875 -5 20 C-5.86625 20.928125 -6.7325 21.85625 -7.625 22.8125 C-10 25 -10 25 -13 25 C-13 24.34 -13 23.68 -13 23 C-16.02259485 25.82758873 -17.84332671 27.67294081 -18.1328125 31.97265625 C-18.22597103 36.11816063 -18.22597103 36.11816063 -17 40 C-16.01 40.33 -15.02 40.66 -14 41 C-14 39.35 -14 37.7 -14 36 C-12.515 35.505 -12.515 35.505 -11 35 C-11 35.66 -11 36.32 -11 37 C-5.06 37.33 0.88 37.66 7 38 C9 43 9 43 8.5390625 45.01953125 C7.69270833 46.6796875 6.84635417 48.33984375 6 50 C4.741875 49.835 3.48375 49.67 2.1875 49.5 C-1.39229651 49.03051849 -4.17350732 48.68514564 -7.625 50 C-13.32382184 51.6885398 -17.99070834 52.00464583 -23.375 49.3125 C-28.5324634 44.76902034 -29.68684957 40.66625036 -30.125 33.9296875 C-29.91965457 29.11690394 -28.66667462 25.0239641 -26 21 C-23.0625 19.4375 -23.0625 19.4375 -20 19 C-19.05125 18.79375 -18.1025 18.5875 -17.125 18.375 C-16.42375 18.25125 -15.7225 18.1275 -15 18 C-14.9175 16.80375 -14.835 15.6075 -14.75 14.375 C-14.15181141 9.97792543 -13.09528621 7.32177057 -10 4 C-6.75810555 2.36124017 -3.45230623 1.12002301 0 0 Z " fill="#E7D2A7" transform="translate(35,69)"/>
<path d="M0 0 C0.66 0.33 1.32 0.66 2 1 C1.2575 1.61875 0.515 2.2375 -0.25 2.875 C-2.74154191 5.33144977 -3.84008514 7.73698026 -5.0625 11 C-7.95396054 18.57878915 -7.95396054 18.57878915 -11 21 C-13.79818138 21.45481276 -16.54444025 21.6304039 -19.375 21.7734375 C-24.06539352 22.17826313 -26.2156184 24.08115298 -29.1875 27.5625 C-29.785625 28.366875 -30.38375 29.17125 -31 30 C-31.66 30.66 -32.32 31.32 -33 32 C-33.99 31.67 -34.98 31.34 -36 31 C-36.33 31.66 -36.66 32.32 -37 33 C-38.65 33 -40.3 33 -42 33 C-42.33 33.99 -42.66 34.98 -43 36 C-45.375 35.75 -45.375 35.75 -48 35 C-50.45826082 31.21271478 -50.71977007 27.0389067 -51.33984375 22.65625 C-52.05858956 19.76425503 -53.23418418 18.34800578 -55 16 C-55 14.68 -55 13.36 -55 12 C-52.625 11.8125 -52.625 11.8125 -50 12 C-49.01 13.485 -49.01 13.485 -48 15 C-46.35 13.02 -44.7 11.04 -43 9 C-43 9.99 -43 10.98 -43 12 C-38.80008613 11.34317137 -34.69536571 10.49228468 -30.5625 9.5 C-27.08223386 8.67925696 -23.73575153 7.96534446 -20.1875 7.5 C-16.15831369 6.86797078 -12.77934137 5.52499739 -9 4 C-9 4.66 -9 5.32 -9 6 C-8.01 6.33 -7.02 6.66 -6 7 C-4.02 4.69 -2.04 2.38 0 0 Z " fill="#F60000" transform="translate(83,24)"/>
<path d="M0 0 C0.33 0.66 0.66 1.32 1 2 C0.67 2.66 0.34 3.32 0 4 C-0.2863168 6.63180092 -0.5123346 9.23584137 -0.6875 11.875 C-0.74744141 12.59558594 -0.80738281 13.31617187 -0.86914062 14.05859375 C-1.12887407 17.92257345 -1.23106535 20.73460934 1 24 C0.98839844 23.08476563 0.97679688 22.16953125 0.96484375 21.2265625 C0.95582031 20.03804687 0.94679688 18.84953125 0.9375 17.625 C0.92589844 16.44164063 0.91429688 15.25828125 0.90234375 14.0390625 C1 11 1 11 2 9 C2.66 9.33 3.32 9.66 4 10 C3.97679688 10.62648438 3.95359375 11.25296875 3.9296875 11.8984375 C3.91164063 12.71570313 3.89359375 13.53296875 3.875 14.375 C3.85179688 15.18710938 3.82859375 15.99921875 3.8046875 16.8359375 C3.78629949 19.21342243 3.78629949 19.21342243 6 21 C6.103125 21.928125 6.20625 22.85625 6.3125 23.8125 C7.18554293 27.8602445 8.75656528 29.6368294 12 32 C15.11320406 33.9237058 18.26146874 35.75643368 21.453125 37.546875 C24 39 24 39 25 40 C25.495 39.01 25.495 39.01 26 38 C26.99 38.33 27.98 38.66 29 39 C30.1875 41.5625 30.1875 41.5625 31 44 C30.01 44 29.02 44 28 44 C28.185625 45.0725 28.37125 46.145 28.5625 47.25 C28.9304568 50.40391546 29.04465343 52.09818492 28 55 C26.35 55 24.7 55 23 55 C22.79375 54.0925 22.5875 53.185 22.375 52.25 C20.69127143 48.27027793 18.81503688 46.73609709 15 45 C11.94201372 43.94894653 8.86372338 42.97662523 5.78125 42 C0.81049651 40.21276279 -2.08441985 37.29664443 -5 33 C-10.02438208 34.25609552 -11.96034237 35.87475036 -15 40 C-15.66 40 -16.32 40 -17 40 C-17 41.65 -17 43.3 -17 45 C-18.9375 44.625 -18.9375 44.625 -21 44 C-22.59617288 40.80765423 -22.3762733 37.47380884 -22 34 C-20.75 31.375 -20.75 31.375 -19 29 C-18.278125 27.906875 -17.55625 26.81375 -16.8125 25.6875 C-16.214375 24.800625 -15.61625 23.91375 -15 23 C-13.75453595 25.49092811 -14.2232422 26.41080733 -15 29 C-10.96282223 27.65427408 -9.37468459 24.96886397 -7.1484375 21.55859375 C-6 20 -6 20 -4 19 C-3.57465411 16.35931095 -3.24961597 13.78294787 -3 11.125 C-2.26690574 3.40035861 -2.26690574 3.40035861 0 0 Z " fill="#9C6D00" transform="translate(38,65)"/>
<path d="M0 0 C0.33 0 0.66 0 1 0 C1.33 4.29 1.66 8.58 2 13 C-1.22791555 15.1519437 -2.28400809 15.20086443 -6 15 C-5.401875 15.598125 -4.80375 16.19625 -4.1875 16.8125 C-3.465625 17.534375 -2.74375 18.25625 -2 19 C-1.401875 19.495 -0.80375 19.99 -0.1875 20.5 C0.204375 20.995 0.59625 21.49 1 22 C0.75 23.9375 0.75 23.9375 0 26 C-0.92107761 28.59576416 -1.21553993 29.52723134 -0.05078125 32.08203125 C1.35623941 35.98925963 1.37784851 39.62749376 1.5 43.75 C1.75877151 50.06097302 2.30143252 55.88515706 4 62 C3.01 61.67 2.02 61.34 1 61 C-1.14960164 54.51488425 -1.37616814 48.22309941 -1.56640625 41.44726562 C-1.73159506 37.21340468 -2.07612917 33.87101429 -4 30 C-4.95261719 29.98582031 -5.90523437 29.97164062 -6.88671875 29.95703125 C-17.20270875 29.56474797 -17.20270875 29.56474797 -21 26.875 C-21.66 25.92625 -22.32 24.9775 -23 24 C-23.55558594 23.45859375 -24.11117187 22.9171875 -24.68359375 22.359375 C-26.42613051 20.63624288 -27.80807016 19.14366088 -29 17 C-28.375 13.0625 -28.375 13.0625 -27 10 C-26.34 10 -25.68 10 -25 10 C-25.33 12.31 -25.66 14.62 -26 17 C-25.34 17 -24.68 17 -24 17 C-23.9175 15.906875 -23.835 14.81375 -23.75 13.6875 C-23 10 -23 10 -21.375 8 C-17.86785042 6.52330544 -15.64319548 7.04126435 -12 8 C-9.0625 10.0625 -9.0625 10.0625 -7 12 C-7.57344937 9.13275314 -7.8614515 8.1385485 -10 6 C-3.375 4.75 -3.375 4.75 0 7 C0 4.69 0 2.38 0 0 Z " fill="#3A231D" transform="translate(112,58)"/>
<path d="M0 0 C6.02326372 1.69377287 11.42039938 3.57831664 16 8 C15.45276317 11.37462715 14.9451 13.08235 13 16 C12.34 16 11.68 16 11 16 C11 18.31 11 20.62 11 23 C10.13375 22.690625 10.13375 22.690625 9.25 22.375 C6.48032433 21.91338739 5.35438733 22.57055055 3 24 C3.66 25.65 4.32 27.3 5 29 C2.56070254 27.07423885 0.19909405 25.19909405 -2 23 C-6.13997567 22.8028583 -9.07703567 22.69234522 -13 24 C-12.88490339 22.58249437 -12.75746342 21.16598831 -12.625 19.75 C-12.55539063 18.96109375 -12.48578125 18.1721875 -12.4140625 17.359375 C-11.98492887 14.914123 -11.21399362 13.15163097 -10 11 C-10.66 11 -11.32 11 -12 11 C-11.71574109 7.30463414 -11.4523486 4.6785229 -9.375 1.5625 C-5.93161368 -0.70288574 -4.10056292 -0.5207064 0 0 Z " fill="#23150A" transform="translate(101,42)"/>
<path d="M0 0 C0.5 2.6875 0.5 2.6875 0 6 C-2.99711514 8.58655142 -6.47939593 10.23969796 -10 12 C-9.34 12.33 -8.68 12.66 -8 13 C-8.48210937 13.39832031 -8.96421875 13.79664063 -9.4609375 14.20703125 C-10.09257813 14.73683594 -10.72421875 15.26664063 -11.375 15.8125 C-12.00148437 16.33457031 -12.62796875 16.85664063 -13.2734375 17.39453125 C-15.2221048 19.08225739 -15.2221048 19.08225739 -17 22 C-18.32 21.01 -19.64 20.02 -21 19 C-21.98871094 19.46277344 -22.97742188 19.92554687 -23.99609375 20.40234375 C-27.95082939 22.09666194 -31.83173685 22.88219651 -36.0625 23.5625 C-40.86873645 24.35823451 -45.38340583 25.42081568 -50 27 C-52.875 27.125 -52.875 27.125 -55 27 C-51.70444559 20.40889119 -46.47218556 18.10806182 -40 15 C-38.84564453 14.443125 -38.84564453 14.443125 -37.66796875 13.875 C-32.95824841 11.70258846 -28.13676074 9.94325771 -23.25 8.21484375 C-18.3564039 6.38562694 -13.55164846 4.34336586 -8.75 2.28588867 C-3.32420916 0 -3.32420916 0 0 0 Z " fill="#F8F39C" transform="translate(94,10)"/>
<path d="M0 0 C1.37326443 3.70781397 0.53168691 5.45293558 -1 9 C-1.92724554 12.41921793 -2.790878 15.7908193 -3.39453125 19.28125 C-4.27355593 24.34180332 -5.64339653 28.74973366 -7.625 33.5 C-9.93379101 39.20765638 -10.62022006 43.89427811 -10 50 C-9.34 49.01 -8.68 48.02 -8 47 C-8 50.63 -8 54.26 -8 58 C-8.99 57.34 -9.98 56.68 -11 56 C-11.99 58.475 -11.99 58.475 -13 61 C-13.66 61 -14.32 61 -15 61 C-15 58.36 -15 55.72 -15 53 C-15.66 53.66 -16.32 54.32 -17 55 C-17 52.69 -17 50.38 -17 48 C-18.32 47.67 -19.64 47.34 -21 47 C-20.10251583 31.50658908 -20.10251583 31.50658908 -18 26 C-17.06800781 25.443125 -16.13601562 24.88625 -15.17578125 24.3125 C-11.03217535 21.29526176 -9.79926504 18.19894931 -7.875 13.5625 C-5.7094639 8.49653703 -3.72384716 4.16243361 0 0 Z " fill="#876346" transform="translate(84,34)"/>
<path d="M0 0 C0.55300781 0.72832031 1.10601562 1.45664063 1.67578125 2.20703125 C4.00311258 5.00374033 6.44546447 7.30188858 9.1875 9.6875 C14.94162582 14.70024504 15.5673516 17.74973142 16.140625 25.3203125 C15.88093408 32.11555813 13.00219379 37.99561243 10 44 C8.35 44 6.7 44 5 44 C5.495 42.845 5.99 41.69 6.5 40.5 C8.84857016 33.57614929 8.43384367 26.21682258 8 19 C7.67 18.34 7.34 17.68 7 17 C6.401875 17.94875 5.80375 18.8975 5.1875 19.875 C3 23 3 23 0 25 C-0.99 25 -1.98 25 -3 25 C-4.57170996 21.85658007 -4.23175783 18.44228549 -4 15 C-3.67 14.01 -3.34 13.02 -3 12 C-2.34 12 -1.68 12 -1 12 C-0.67 12.66 -0.34 13.32 0 14 C-0.33 13.01 -0.66 12.02 -1 11 C-1.34820041 9.33637583 -1.68404492 7.67004829 -2 6 C-1.34 6 -0.68 6 0 6 C-0.2784375 4.7934375 -0.2784375 4.7934375 -0.5625 3.5625 C-0.706875 2.716875 -0.85125 1.87125 -1 1 C-0.67 0.67 -0.34 0.34 0 0 Z " fill="#673B28" transform="translate(81,76)"/>
<path d="M0 0 C14.24416621 0.47980349 14.24416621 0.47980349 18.31640625 4.3125 C19.21166016 5.2715625 19.21166016 5.2715625 20.125 6.25 C22.79334966 6.58498301 22.79334966 6.58498301 25.125 6.25 C25.125 6.91 25.125 7.57 25.125 8.25 C24.135 8.25 23.145 8.25 22.125 8.25 C23.38041557 10.76083114 24.62563488 11.12125446 27.125 12.25 C26.38894531 12.52972656 25.65289062 12.80945313 24.89453125 13.09765625 C18.10115288 15.78574014 18.10115288 15.78574014 13.25 21 C11.125 24.25 11.125 24.25 8.75 25.375 C5.02699556 25.19771407 2.46701543 23.88824286 -0.875 22.25 C0 18.375 0 18.375 1.125 17.25 C3.14094582 17.01572222 5.163474 16.83663876 7.1875 16.6875 C8.84458984 16.56181641 8.84458984 16.56181641 10.53515625 16.43359375 C11.38980469 16.37300781 12.24445312 16.31242187 13.125 16.25 C13.125 15.26 13.125 14.27 13.125 13.25 C12.34125 13.023125 11.5575 12.79625 10.75 12.5625 C7.6932177 11.455734 4.8121837 10.25845609 1.875 8.875 C1.02421875 8.47539063 0.1734375 8.07578125 -0.703125 7.6640625 C-3.12139599 6.08957671 -3.85653943 4.90931371 -4.875 2.25 C-2.875 0.25 -2.875 0.25 0 0 Z " fill="#BC0201" transform="translate(8.875,56.75)"/>
<path d="M0 0 C0.66 0.33 1.32 0.66 2 1 C1.2575 1.61875 0.515 2.2375 -0.25 2.875 C-2.74154191 5.33144977 -3.84008514 7.73698026 -5.0625 11 C-7.95396054 18.57878915 -7.95396054 18.57878915 -11 21 C-13.79818138 21.45481276 -16.54444025 21.6304039 -19.375 21.7734375 C-24.06539352 22.17826313 -26.2156184 24.08115298 -29.1875 27.5625 C-29.785625 28.366875 -30.38375 29.17125 -31 30 C-31.66 30.66 -32.32 31.32 -33 32 C-33.66 31.67 -34.32 31.34 -35 31 C-33.79618552 28.50638429 -32.54571278 26.31856917 -31 24 C-31.78375 23.566875 -32.5675 23.13375 -33.375 22.6875 C-36 21 -36 21 -38 18 C-38 17.01 -38 16.02 -38 15 C-32.49411765 15.48941176 -32.49411765 15.48941176 -30.125 17.9375 C-29 20 -29 20 -29 22 C-28.01 22 -27.02 22 -26 22 C-25.67 21.01 -25.34 20.02 -25 19 C-22.9375 18.3125 -22.9375 18.3125 -21 18 C-21.165 17.030625 -21.33 16.06125 -21.5 15.0625 C-22 12 -22 12 -22 11 C-27.61 11.66 -33.22 12.32 -39 13 C-36.40001881 10.40001881 -34.38785926 10.22333846 -30.8125 9.4375 C-29.63945313 9.17839844 -28.46640625 8.91929688 -27.2578125 8.65234375 C-24.91642349 8.18350446 -22.55509371 7.81050409 -20.1875 7.5 C-16.15831369 6.86797078 -12.77934137 5.52499739 -9 4 C-9 4.66 -9 5.32 -9 6 C-8.01 6.33 -7.02 6.66 -6 7 C-4.02 4.69 -2.04 2.38 0 0 Z " fill="#8B2804" transform="translate(83,24)"/>
<path d="M0 0 C0.99 0.33 1.98 0.66 3 1 C2.38125 1.556875 1.7625 2.11375 1.125 2.6875 C-3.4676982 7.68543628 -3.25320273 12.54333031 -3 19 C-2.67 18.34 -2.34 17.68 -2 17 C-1.34 17.33 -0.68 17.66 0 18 C0.33 18.99 0.66 19.98 1 21 C1.99 21.33 2.98 21.66 4 22 C3.67 22.99 3.34 23.98 3 25 C1.68 24.34 0.36 23.68 -1 23 C1.24958334 25.58333229 1.24958334 25.58333229 4 28 C5.32 28 6.64 28 8 28 C9.98 22.555 9.98 22.555 12 17 C18.27 17.33 24.54 17.66 31 18 C33 23 33 23 32.5390625 25.01953125 C31.69270833 26.6796875 30.84635417 28.33984375 30 30 C28.741875 29.835 27.48375 29.67 26.1875 29.5 C22.60770349 29.03051849 19.82649268 28.68514564 16.375 30 C10.67617816 31.6885398 6.00929166 32.00464583 0.625 29.3125 C-4.53787165 24.76425592 -5.66547427 20.66794156 -6.140625 13.93359375 C-5.9141998 9.21011253 -4.37193695 5.07336168 -2 1 C-1.34 0.67 -0.68 0.34 0 0 Z " fill="#242224" transform="translate(11,89)"/>
<path d="M0 0 C1.51400391 0.01740234 1.51400391 0.01740234 3.05859375 0.03515625 C4.07050781 0.04417969 5.08242187 0.05320312 6.125 0.0625 C7.29869141 0.07990234 7.29869141 0.07990234 8.49609375 0.09765625 C11.53325651 5.17579239 11.94895588 9.16944549 12.05859375 14.91015625 C12.28275144 21.21339383 12.79932774 26.98929861 14.49609375 33.09765625 C11.52609375 33.09765625 8.55609375 33.09765625 5.49609375 33.09765625 C5.24214844 31.71191406 4.98820312 30.32617188 4.7265625 28.8984375 C4.37942186 27.06891251 4.03173699 25.23949072 3.68359375 23.41015625 C3.51794922 22.49814453 3.35230469 21.58613281 3.18164062 20.64648438 C2.2573493 15.85063318 1.30057516 12.18244439 -1.50390625 8.09765625 C-2.22556816 5.78074171 -2.90450154 3.44916702 -3.50390625 1.09765625 C-2.50390625 0.09765625 -2.50390625 0.09765625 0 0 Z " fill="#FA0000" transform="translate(99.50390625,86.90234375)"/>
<path d="M0 0 C0.66 0 1.32 0 2 0 C2 4.29 2 8.58 2 13 C7.06873851 10.92642516 9.26847601 8.72763768 12 4 C14.42193269 7.63289904 14.38273059 10.41569122 14.375 14.625 C14.37693359 15.69717773 14.37693359 15.69717773 14.37890625 16.79101562 C14.26146967 22.67885892 12.94546306 26.84543964 10 32 C6.37 32 2.74 32 -1 32 C-0.21875 29.29817708 0.5625 26.59635417 1.34375 23.89453125 C1.96677608 21.14654124 2.12302812 18.80401584 2 16 C1.33613281 15.96261719 0.67226562 15.92523438 -0.01171875 15.88671875 C-5.07036379 15.5100897 -8.84180819 15.18794705 -13 12 C-12.34 11.67 -11.68 11.34 -11 11 C-10.195625 11.433125 -10.195625 11.433125 -9.375 11.875 C-5.96691549 13.48935582 -2.7461871 13.62538129 1 14 C0.69964844 13.31292969 0.39929688 12.62585938 0.08984375 11.91796875 C-0.29042969 11.01691406 -0.67070313 10.11585937 -1.0625 9.1875 C-1.44535156 8.29417969 -1.82820313 7.40085937 -2.22265625 6.48046875 C-3 4 -3 4 -2 1 C-1.67 1.33 -1.34 1.66 -1 2 C-0.67 1.34 -0.34 0.68 0 0 Z " fill="#6F4602" transform="translate(76,88)"/>
<path d="M0 0 C0.33 0.66 0.66 1.32 1 2 C0.67 2.66 0.34 3.32 0 4 C-0.26124367 6.58921503 -0.46684823 9.15445036 -0.625 11.75 C-0.70234375 12.80574219 -0.70234375 12.80574219 -0.78125 13.8828125 C-1.04724101 18.09172906 -0.87651701 21.83981477 0 26 C-0.99 26.33 -1.98 26.66 -3 27 C-4.20882096 29.00016466 -4.20882096 29.00016466 -5 31 C-4.34 31 -3.68 31 -3 31 C-1.64721885 32.98689731 -0.31431695 34.98745218 1 37 C1.66 37.33 2.32 37.66 3 38 C3 38.66 3 39.32 3 40 C-0.7952131 38.50902342 -2.61042731 36.24299151 -5 33 C-10.02438208 34.25609552 -11.96034237 35.87475036 -15 40 C-15.66 40 -16.32 40 -17 40 C-17 41.65 -17 43.3 -17 45 C-18.9375 44.625 -18.9375 44.625 -21 44 C-22.59617288 40.80765423 -22.3762733 37.47380884 -22 34 C-20.75 31.375 -20.75 31.375 -19 29 C-18.278125 27.906875 -17.55625 26.81375 -16.8125 25.6875 C-16.214375 24.800625 -15.61625 23.91375 -15 23 C-13.75453595 25.49092811 -14.2232422 26.41080733 -15 29 C-10.96282223 27.65427408 -9.37468459 24.96886397 -7.1484375 21.55859375 C-6 20 -6 20 -4 19 C-3.57465411 16.35931095 -3.24961597 13.78294787 -3 11.125 C-2.26690574 3.40035861 -2.26690574 3.40035861 0 0 Z " fill="#623A28" transform="translate(38,65)"/>
<path d="M0 0 C1.65 0 3.3 0 5 0 C4.67 0.99 4.34 1.98 4 3 C3.34 3 2.68 3 2 3 C2.01160156 3.91523437 2.02320313 4.83046875 2.03515625 5.7734375 C2.04417969 6.96195312 2.05320313 8.15046875 2.0625 9.375 C2.07410156 10.55835938 2.08570313 11.74171875 2.09765625 12.9609375 C2 16 2 16 1 18 C0.01 18 -0.98 18 -2 18 C-2 18.66 -2 19.32 -2 20 C-3.91666667 20.47916667 -5.83333333 20.95833333 -7.75 21.4375 C-8.81734375 21.70433594 -9.8846875 21.97117187 -10.984375 22.24609375 C-11.97953125 22.49488281 -12.9746875 22.74367188 -14 23 C-14.72703125 23.23847656 -15.4540625 23.47695313 -16.203125 23.72265625 C-18 24 -18 24 -21 22 C-20.21753906 21.63648437 -19.43507813 21.27296875 -18.62890625 20.8984375 C-17.11103516 20.14433594 -17.11103516 20.14433594 -15.5625 19.375 C-14.55316406 18.88773438 -13.54382813 18.40046875 -12.50390625 17.8984375 C-9.69262157 16.17195658 -9.69262157 16.17195658 -9.15234375 12.7890625 C-9.10207031 11.86867188 -9.05179688 10.94828125 -9 10 C-12.25113908 11.28881244 -15.50070441 12.58154762 -18.75 13.875 C-19.67039062 14.23980469 -20.59078125 14.60460938 -21.5390625 14.98046875 C-22.42851563 15.33496094 -23.31796875 15.68945312 -24.234375 16.0546875 C-25.05131836 16.37937012 -25.86826172 16.70405273 -26.70996094 17.03857422 C-28.99908354 17.95872674 -28.99908354 17.95872674 -31.09472656 19.11376953 C-33.75690187 20.35206993 -36.10650994 20.13152228 -39 20 C-38 18 -38 18 -36.35546875 17.32421875 C-35.64003906 17.11410156 -34.92460938 16.90398438 -34.1875 16.6875 C-30.32505891 15.48202476 -26.6527452 14.04052458 -22.9375 12.4375 C-18.31872253 10.47407603 -13.90504271 9.03760519 -9 8 C-9 6.68 -9 5.36 -9 4 C-6.69 4.33 -4.38 4.66 -2 5 C-1.34 3.35 -0.68 1.7 0 0 Z " fill="#43331E" transform="translate(103,0)"/>
<path d="M0 0 C0.25523438 0.55558594 0.51046875 1.11117188 0.7734375 1.68359375 C2.1803308 4.34056103 3.83747417 6.64471107 5.625 9.0625 C6.33914062 10.03960937 7.05328125 11.01671875 7.7890625 12.0234375 C9.1810392 13.89744147 10.59024577 15.75888741 12.0234375 17.6015625 C16.10088581 22.93608973 19.49077567 28.4191324 22.5625 34.375 C22.92150391 35.05328857 23.28050781 35.73157715 23.65039062 36.43041992 C25.11815406 39.38242618 26.02655025 41.52727609 25.83984375 44.8515625 C25 47 25 47 23 49 C20.50390625 49.23046875 20.50390625 49.23046875 17.5625 49.1875 C16.59441406 49.18105469 15.62632813 49.17460938 14.62890625 49.16796875 C12 49 12 49 9 48 C6.66700175 47.96045766 4.33291811 47.95598268 2 48 C2 49.32 2 50.64 2 52 C4.79605529 54.1844182 7.75091305 55.28618192 11.0625 56.4375 C14.51864979 57.66577251 16.62322958 59.12806908 19 62 C18.67 62.66 18.34 63.32 18 64 C15.27734375 64.4140625 15.27734375 64.4140625 11.9375 64.625 C10.28041016 64.73714844 10.28041016 64.73714844 8.58984375 64.8515625 C7.73519531 64.90054688 6.88054688 64.94953125 6 65 C5.67 66.32 5.34 67.64 5 69 C6.43503555 69.36402369 7.87316506 69.71586591 9.3125 70.0625 C10.11300781 70.25972656 10.91351563 70.45695312 11.73828125 70.66015625 C14.15957179 71.19885554 14.15957179 71.19885554 17 70 C17.125 73.375 17.125 73.375 17 77 C16.01 77.99 16.01 77.99 15 79 C12.875 78.625 12.875 78.625 11 78 C12.98 77.505 12.98 77.505 15 77 C15 75.68 15 74.36 15 73 C13.1746875 73.0928125 13.1746875 73.0928125 11.3125 73.1875 C7.42249954 73.20822824 5.16367751 72.37275814 2 70 C2.75 65.25 2.75 65.25 5 63 C7.6015625 62.8046875 7.6015625 62.8046875 10.625 62.875 C11.62789062 62.89304688 12.63078125 62.91109375 13.6640625 62.9296875 C14.82035156 62.96449219 14.82035156 62.96449219 16 63 C16 62.34 16 61.68 16 61 C15.1646875 60.76216797 15.1646875 60.76216797 14.3125 60.51953125 C8.85472651 58.85085388 3.19655135 57.0286893 -1 53 C-1.5 49.6875 -1.5 49.6875 -1 47 C1.97583272 45.2557759 3.66991906 44.80428545 7.0625 45.375 C12.38809841 46.12945978 17.63085763 46.09032202 23 46 C22.51546948 40.31043702 20.98244888 36.34860697 18.125 31.4375 C17.53803345 30.40846558 17.53803345 30.40846558 16.93920898 29.35864258 C13.2489212 23.07627239 8.90690034 17.41131309 4.28515625 11.79296875 C0.77802414 7.50647395 -0.24507799 5.51425468 0 0 Z " fill="#574544" transform="translate(4,10)"/>
<path d="M0 0 C0.46025877 6.11486652 -2.3636452 10.26944794 -6 15 C-9.25 17.0625 -9.25 17.0625 -12 18 C-12.66 18.33 -13.32 18.66 -14 19 C-14.39859599 15.51228512 -14.1750037 14.25083864 -12.125 11.3125 C-10.77903748 9.84777608 -9.40659718 8.40659718 -8 7 C-8.99 7 -9.98 7 -11 7 C-11.66 8.65 -12.32 10.3 -13 12 C-14.32 11.01 -15.64 10.02 -17 9 C-16.7525 9.86625 -16.505 10.7325 -16.25 11.625 C-15.91916971 16.0912089 -17.33608375 17.47211091 -20 21 C-21.38413534 23.30689223 -22.68530406 25.65232868 -24 28 C-28.455 27.01 -28.455 27.01 -33 26 C-33 25.67 -33 25.34 -33 25 C-32.0925 24.814375 -31.185 24.62875 -30.25 24.4375 C-26.0687025 22.58807995 -24.77123507 20.01371618 -23 16 C-22.566875 14.824375 -22.13375 13.64875 -21.6875 12.4375 C-18.89834189 6.75588163 -14.70871731 3.4849537 -8.875 1.125 C-5.84461211 0.11683593 -3.21511292 -0.30141684 0 0 Z " fill="#EAD5A9" transform="translate(100,20)"/>
<path d="M0 0 C1.53106781 5.00541399 1.10319465 9.92983828 0 15 C-2.25 17.875 -2.25 17.875 -5 20 C-5.86625 20.928125 -6.7325 21.85625 -7.625 22.8125 C-10 25 -10 25 -13 25 C-12.67 23.35 -12.34 21.7 -12 20 C-12.99 19.34 -13.98 18.68 -15 18 C-14.60268146 12.23888117 -14.08396367 8.38279028 -10 4 C-6.75810555 2.36124017 -3.45230623 1.12002301 0 0 Z " fill="#E5D1A7" transform="translate(35,69)"/>
<path d="M0 0 C1.36328912 3.68088063 0.58375966 5.49905759 -1 9 C-1.33 10.010625 -1.66 11.02125 -2 12.0625 C-4.17431193 18.44954128 -4.17431193 18.44954128 -8 21 C-8.80549819 22.93892696 -8.80549819 22.93892696 -9.3125 25.25 C-10.57711374 29.82000627 -12.1732376 34.19081837 -14 38.5625 C-14.7425 40.35880859 -14.7425 40.35880859 -15.5 42.19140625 C-17 45 -17 45 -20 46 C-20.57846682 30.55279335 -20.57846682 30.55279335 -17 25 C-16.22140625 24.61972656 -15.4428125 24.23945312 -14.640625 23.84765625 C-10.8308405 21.18193425 -9.70845131 17.82701674 -7.9375 13.625 C-5.74924809 8.5465223 -3.73569714 4.17665917 0 0 Z " fill="#997150" transform="translate(84,34)"/>
<path d="M0 0 C2.28515625 -0.24609375 2.28515625 -0.24609375 5 0 C6.80859375 1.65234375 6.80859375 1.65234375 8.4375 3.9375 C9.31921875 5.16146484 9.31921875 5.16146484 10.21875 6.41015625 C10.8065625 7.26480469 11.394375 8.11945312 12 9 C12.5878125 9.82371094 13.175625 10.64742187 13.78125 11.49609375 C18 17.55557193 18 17.55557193 18 21 C16.35 21 14.7 21 13 21 C12.67 21.99 12.34 22.98 12 24 C9.625 23.75 9.625 23.75 7 23 C4.54173918 19.21271478 4.28022993 15.0389067 3.66015625 10.65625 C2.94141044 7.76425503 1.76581582 6.34800578 0 4 C0 2.68 0 1.36 0 0 Z " fill="#0A0100" transform="translate(28,36)"/>
<path d="M0 0 C0.763125 0.474375 1.52625 0.94875 2.3125 1.4375 C6.89111612 3.7764557 11.9528922 3.73956205 17 4 C16.58411954 10.19518473 15.39748106 15.26689311 13 21 C10.03 21 7.06 21 4 21 C3.14702729 17.58810914 2.9579444 15.3577347 4 12 C4 11.34 4 10.68 4 10 C4.99 10 5.98 10 7 10 C6.29660434 7.49034386 6.29660434 7.49034386 5 5 C2.95894361 4.11306697 2.95894361 4.11306697 1 4 C0.67 2.68 0.34 1.36 0 0 Z " fill="#9E6B00" transform="translate(62,99)"/>
<path d="M0 0 C0.33 0 0.66 0 1 0 C1.33 4.29 1.66 8.58 2 13 C-1.16240582 15.10827055 -2.50657469 15.33817465 -6.1875 15.625 C-7.08855469 15.69976562 -7.98960938 15.77453125 -8.91796875 15.8515625 C-9.60503906 15.90054688 -10.29210937 15.94953125 -11 16 C-11 15.34 -11 14.68 -11 14 C-12.32 14 -13.64 14 -15 14 C-15.33 14.99 -15.66 15.98 -16 17 C-18.64 17 -21.28 17 -24 17 C-23.52 10.64 -23.52 10.64 -21.375 8 C-17.86785042 6.52330544 -15.64319548 7.04126435 -12 8 C-9.0625 10.0625 -9.0625 10.0625 -7 12 C-7.57344937 9.13275314 -7.8614515 8.1385485 -10 6 C-3.375 4.75 -3.375 4.75 0 7 C0 4.69 0 2.38 0 0 Z " fill="#963D3D" transform="translate(112,58)"/>
<path d="M0 0 C0.66 0.33 1.32 0.66 2 1 C1.67 2.32 1.34 3.64 1 5 C1.33 5 1.66 5 2 5 C2.87272114 13.58175792 -0.08484549 19.46099712 -4 27 C-4.66 27 -5.32 27 -6 27 C-6.19335938 27.79664062 -6.38671875 28.59328125 -6.5859375 29.4140625 C-9.17223199 39.93848858 -9.17223199 39.93848858 -11 45 C-11.33 45 -11.66 45 -12 45 C-12.63537791 36.37297991 -11.64377434 30.0210779 -8.23828125 22.078125 C-6.78633041 18.4688592 -6.06176586 14.97962255 -5.390625 11.1640625 C-4.87294229 8.29610031 -4.1652003 5.67310656 -3 3 C-2.01 2.67 -1.02 2.34 0 2 C0 1.34 0 0.68 0 0 Z " fill="#563222" transform="translate(85,42)"/>
<path d="M0 0 C3.16115776 1.36983503 3.9927092 1.9890638 6 5 C8.32564137 15.56549654 5.72218872 23.55562256 1 33 C-0.65 33 -2.3 33 -4 33 C-3.27876953 31.16115234 -3.27876953 31.16115234 -2.54296875 29.28515625 C-0.57462748 23.38013244 -0.44287332 17.61719532 -0.3125 11.4375 C-0.27833984 10.33341797 -0.24417969 9.22933594 -0.20898438 8.09179688 C-0.12725214 5.39463297 -0.05786174 2.69776357 0 0 Z " fill="#B68E00" transform="translate(90,87)"/>
<path d="M0 0 C3 2 3 2 3.94921875 5.5546875 C4.20834462 6.99250387 4.45394176 8.43280976 4.6875 9.875 C4.81705078 10.59558594 4.94660156 11.31617187 5.08007812 12.05859375 C5.66842725 15.43926652 6 18.55869198 6 22 C1.38 22 -3.24 22 -8 22 C-7.566875 20.741875 -7.13375 19.48375 -6.6875 18.1875 C-5.14566349 13.60562735 -3.91360436 8.97498701 -2.74609375 4.28515625 C-2 2 -2 2 0 0 Z " fill="#050401" transform="translate(99,98)"/>
<path d="M0 0 C0.99 0.495 0.99 0.495 2 1 C2.2475 1.804375 2.495 2.60875 2.75 3.4375 C3.1625 4.283125 3.575 5.12875 4 6 C5.99571323 6.67939174 7.99594773 7.34561559 10 8 C12.24698231 10.921077 13 12.29588166 13 16 C14.32 16.33 15.64 16.66 17 17 C12.05 19.31 7.1 21.62 2 24 C1.93941406 22.68644531 1.87882812 21.37289063 1.81640625 20.01953125 C1.73196744 18.28384459 1.64732112 16.54816802 1.5625 14.8125 C1.52318359 13.94818359 1.48386719 13.08386719 1.44335938 12.19335938 C1.23652984 8.04085878 0.99896469 4.05462138 0 0 Z " fill="#A90C08" transform="translate(43,6)"/>
<path d="M0 0 C0.33 0.99 0.66 1.98 1 3 C1.99 2.67 2.98 2.34 4 2 C4.33 1.34 4.66 0.68 5 0 C8.465 1.485 8.465 1.485 12 3 C11.33203125 4.96484375 11.33203125 4.96484375 10 7 C7.57421875 7.50390625 7.57421875 7.50390625 4.6875 7.5625 C0.30566707 7.81991838 -2.54715529 8.07031358 -6 11 C-7.38576923 12.62332967 -8.72641268 14.28724465 -10 16 C-10.66 16.66 -11.32 17.32 -12 18 C-12.66 17.67 -13.32 17.34 -14 17 C-12.79618552 14.50638429 -11.54571278 12.31856917 -10 10 C-10.78375 9.566875 -11.5675 9.13375 -12.375 8.6875 C-15 7 -15 7 -17 4 C-17 3.01 -17 2.02 -17 1 C-11.49411765 1.48941176 -11.49411765 1.48941176 -9.125 3.9375 C-8 6 -8 6 -8 8 C-7.01 8 -6.02 8 -5 8 C-4.67 7.01 -4.34 6.02 -4 5 C-1.9375 4.3125 -1.9375 4.3125 0 4 C0 2.68 0 1.36 0 0 Z " fill="#55400A" transform="translate(62,38)"/>
<path d="M0 0 C1.2684375 0.2475 1.2684375 0.2475 2.5625 0.5 C1.840625 1.098125 1.11875 1.69625 0.375 2.3125 C-8.10732998 11.0364918 -8.29012239 22.07153602 -8.4375 33.5 C-11.4375 31.5 -11.4375 31.5 -12.11328125 29.703125 C-13.27091443 21.83679836 -13.41243743 13.06052414 -8.95703125 6.23046875 C-4.53775737 0.66003744 -4.53775737 0.66003744 0 0 Z " fill="#E8D4A8" transform="translate(61.4375,45.5)"/>
<path d="M0 0 C0.66 0.33 1.32 0.66 2 1 C1.97679687 1.62648438 1.95359375 2.25296875 1.9296875 2.8984375 C1.91164062 3.71570313 1.89359375 4.53296875 1.875 5.375 C1.84019531 6.59316406 1.84019531 6.59316406 1.8046875 7.8359375 C1.78629949 10.21342243 1.78629949 10.21342243 4 12 C4.103125 12.928125 4.20625 13.85625 4.3125 14.8125 C5.18554293 18.8602445 6.75656528 20.6368294 10 23 C13.11320406 24.9237058 16.26146874 26.75643368 19.453125 28.546875 C22 30 22 30 23 31 C23.33 30.34 23.66 29.68 24 29 C24.99 29.33 25.98 29.66 27 30 C28.1875 32.5625 28.1875 32.5625 29 35 C28.01 35 27.02 35 26 35 C26.33 37.31 26.66 39.62 27 42 C24.8436461 39.38157027 22.93681612 36.8894282 21.25 33.9375 C18.74052999 30.66124749 16.89006042 29.71330593 13.23046875 28.05859375 C10.74298937 26.87802122 8.45156757 25.53486885 6.125 24.0625 C5.38507812 23.59972656 4.64515625 23.13695313 3.8828125 22.66015625 C-0.30798022 18.9649552 -0.34629267 14.12079106 -0.6875 8.8125 C-0.77386719 7.58144531 -0.86023437 6.35039063 -0.94921875 5.08203125 C-1 2 -1 2 0 0 Z " fill="#1E1203" transform="translate(40,74)"/>
<path d="M0 0 C2.41071182 2.00892652 3.36194824 2.88791682 4.25 5.875 C4.39979106 8.56607389 4.34000397 11.17488077 4.25 13.875 C3.68152344 13.59785156 3.11304687 13.32070313 2.52734375 13.03515625 C-2.31053853 10.76563217 -6.42198412 9.32844816 -11.75 8.875 C-11.75 8.215 -11.75 7.555 -11.75 6.875 C-10.43 6.875 -9.11 6.875 -7.75 6.875 C-8.08 4.895 -8.41 2.915 -8.75 0.875 C-3.51521739 -1.43804348 -3.51521739 -1.43804348 0 0 Z " fill="#88671A" transform="translate(109.75,32.125)"/>
<path d="M0 0 C0.66 0 1.32 0 2 0 C2 4.29 2 8.58 2 13 C7.06873851 10.92642516 9.26847601 8.72763768 12 4 C14.42193269 7.63289904 14.38273059 10.41569122 14.375 14.625 C14.37693359 15.69717773 14.37693359 15.69717773 14.37890625 16.79101562 C14.26440963 22.53145984 13.06309778 27.07716429 10 32 C9.34 32 8.68 32 8 32 C8.165 31.113125 8.33 30.22625 8.5 29.3125 C9.34061774 23.58209173 9.0781681 17.77575419 9 12 C8.01 12.66 7.02 13.32 6 14 C3.3125 14.125 3.3125 14.125 1 14 C0.30093058 12.40084119 -0.38389468 10.79544955 -1.0625 9.1875 C-1.44535156 8.29417969 -1.82820313 7.40085937 -2.22265625 6.48046875 C-3 4 -3 4 -2 1 C-1.67 1.33 -1.34 1.66 -1 2 C-0.67 1.34 -0.34 0.68 0 0 Z " fill="#36281D" transform="translate(76,88)"/>
<path d="M0 0 C0 3 0 3 -1.4375 4.5 C-1.953125 4.995 -2.46875 5.49 -3 6 C-4.37336561 10.12009682 -5.00135467 14.99729065 -3 19 C-2.01 19.33 -1.02 19.66 0 20 C0 18.35 0 16.7 0 15 C0.99 14.67 1.98 14.34 3 14 C2.54636829 15.58468677 2.08688548 17.16769924 1.625 18.75 C1.36976562 19.63171875 1.11453125 20.5134375 0.8515625 21.421875 C0.0790066 23.76080572 -0.83625676 25.83442562 -2 28 C-7.49152542 27.38983051 -7.49152542 27.38983051 -9.875 25.5625 C-11 24 -11 24 -11 22 C-9.68 22.33 -8.36 22.66 -7 23 C-6.67 22.34 -6.34 21.68 -6 21 C-6.99 20.67 -7.98 20.34 -9 20 C-8.34 19.67 -7.68 19.34 -7 19 C-7.05800781 18.20335938 -7.11601562 17.40671875 -7.17578125 16.5859375 C-7.59025703 6.85167775 -7.59025703 6.85167775 -4.625 3.3125 C-2 1 -2 1 0 0 Z " fill="#BB966E" transform="translate(21,90)"/>
<path d="M0 0 C0 0.99 0 1.98 0 3 C2.52108103 2.85775413 5.04180403 2.71129879 7.5625 2.5625 C8.26697266 2.52318359 8.97144531 2.48386719 9.69726562 2.44335938 C14.1798541 2.17481721 18.56293497 1.69383803 23 1 C22.835 1.5775 22.67 2.155 22.5 2.75 C21.85537969 5.26664369 21.85537969 5.26664369 22 9 C21.360625 9.28875 20.72125 9.5775 20.0625 9.875 C17.84793921 10.82823451 17.84793921 10.82823451 17 13 C16.01 13 15.02 13 14 13 C13.319375 11.824375 13.319375 11.824375 12.625 10.625 C11.21067155 7.93414321 11.21067155 7.93414321 8.9375 6.625 C4.5424212 5.68987685 0.41446241 6.3656889 -4 7 C-2.92598892 4.08482708 -2.22189824 2.22189824 0 0 Z " fill="#CB0000" transform="translate(40,33)"/>
<path d="M0 0 C-0.48210937 0.39832031 -0.96421875 0.79664062 -1.4609375 1.20703125 C-2.09257813 1.73683594 -2.72421875 2.26664063 -3.375 2.8125 C-4.00148438 3.33457031 -4.62796875 3.85664063 -5.2734375 4.39453125 C-7.2221048 6.08225739 -7.2221048 6.08225739 -9 9 C-10.32 8.01 -11.64 7.02 -13 6 C-13.94875 6.45375 -14.8975 6.9075 -15.875 7.375 C-21.97407163 9.99065877 -28.3791172 11.15315209 -35 11 C-30.71470086 8.1431339 -26.06168424 6.39851345 -21.3125 4.4375 C-19.8594043 3.8197168 -19.8594043 3.8197168 -18.37695312 3.18945312 C-4.82126412 -2.41063206 -4.82126412 -2.41063206 0 0 Z " fill="#91750C" transform="translate(86,23)"/>
<path d="M0 0 C5.4350945 0.13847375 10.79143472 1.26911443 16.125 2.25 C16.125 2.58 16.125 2.91 16.125 3.25 C13.485 3.58 10.845 3.91 8.125 4.25 C8.90630071 6.74552484 8.90630071 6.74552484 10.125 9.25 C11.115 9.58 12.105 9.91 13.125 10.25 C13.125 10.91 13.125 11.57 13.125 12.25 C13.785 12.25 14.445 12.25 15.125 12.25 C15.125 13.24 15.125 14.23 15.125 15.25 C14.465 15.25 13.805 15.25 13.125 15.25 C13.125 14.59 13.125 13.93 13.125 13.25 C12.34125 13.023125 11.5575 12.79625 10.75 12.5625 C7.6932177 11.455734 4.8121837 10.25845609 1.875 8.875 C1.02421875 8.47539063 0.1734375 8.07578125 -0.703125 7.6640625 C-3.12139599 6.08957671 -3.85653943 4.90931371 -4.875 2.25 C-2.875 0.25 -2.875 0.25 0 0 Z " fill="#F40000" transform="translate(8.875,56.75)"/>
<path d="M0 0 C0.3125 2.6875 0.3125 2.6875 0 6 C-2.1875 8.5625 -2.1875 8.5625 -5 11 C-6.299375 12.3921875 -6.299375 12.3921875 -7.625 13.8125 C-10 16 -10 16 -13 16 C-10.84078037 4.17023285 -10.84078037 4.17023285 -9 1 C-6.09879049 -0.3005422 -3.14412969 -0.08733694 0 0 Z " fill="#BE966D" transform="translate(35,78)"/>
<path d="M0 0 C7.75330719 -0.68918286 14.86011251 1.78360883 21.1875 6.25 C22.0846875 7.11625 22.0846875 7.11625 23 8 C22.50168276 11.68754757 21.89932357 13.60490662 19 16 C18.46375 15.113125 17.9275 14.22625 17.375 13.3125 C12.82217908 6.58638129 7.63178202 4.08602042 0 2 C0 1.34 0 0.68 0 0 Z " fill="#9B6D00" transform="translate(94,42)"/>
<path d="M0 0 C0.66 0.33 1.32 0.66 2 1 C0.63378991 10.03329957 -1.89373099 19.34059649 -7 27 C-7.66 27 -8.32 27 -9 27 C-9.31424632 21.02931983 -8.643316 17.48243318 -6 12 C-5.49140688 10.54464123 -4.9914162 9.08624817 -4.5 7.625 C-4.005 6.42875 -3.51 5.2325 -3 4 C-2.01 3.67 -1.02 3.34 0 3 C0 2.01 0 1.02 0 0 Z " fill="#956B4B" transform="translate(79,50)"/>
<path d="M0 0 C1.134375 0.020625 2.26875 0.04125 3.4375 0.0625 C2.4475 0.7225 1.4575 1.3825 0.4375 2.0625 C0.85 2.701875 1.2625 3.34125 1.6875 4 C8.17434211 15.35197368 8.17434211 15.35197368 7.4375 21.0625 C5.97097983 18.18230724 4.61702126 15.26941485 3.3125 12.3125 C2.95929688 11.51328125 2.60609375 10.7140625 2.2421875 9.890625 C1.97664063 9.28734375 1.71109375 8.6840625 1.4375 8.0625 C1.70304687 8.86171875 1.96859375 9.6609375 2.2421875 10.484375 C4.64821885 17.96590313 6.37142355 25.27733647 7.4375 33.0625 C6.4475 33.0625 5.4575 33.0625 4.4375 33.0625 C4.27930786 32.19298706 4.27930786 32.19298706 4.11791992 31.3059082 C3.63057013 28.66025729 3.12794156 26.0177293 2.625 23.375 C2.45935547 22.46298828 2.29371094 21.55097656 2.12304688 20.61132812 C1.19875555 15.81547693 0.24198141 12.14728814 -2.5625 8.0625 C-3.28416191 5.74558546 -3.96309529 3.41401077 -4.5625 1.0625 C-3.5625 0.0625 -3.5625 0.0625 0 0 Z " fill="#A60000" transform="translate(100.5625,86.9375)"/>
<path d="M0 0 C6.16876961 -0.42543239 8.97284052 0.05008898 14 4 C14.66 4.33 15.32 4.66 16 5 C16.59355614 7.64860427 16.74209269 10.29197322 17 13 C10.94138376 10.13526194 5.18564638 7.28379484 0 3 C0 2.01 0 1.02 0 0 Z " fill="#998256" transform="translate(94,50)"/>
<path d="M0 0 C0.99 0.33 1.98 0.66 3 1 C3.5878125 2.8253125 3.5878125 2.8253125 4.1875 4.6875 C5.7154692 9.28792619 8.28809468 11.17058223 12.2578125 13.7734375 C14 15 14 15 15 17 C7.25 17.125 7.25 17.125 5 16 C5 15.01 5 14.02 5 13 C4.01 12.67 3.02 12.34 2 12 C-1 8.55555556 -1 8.55555556 -1 6 C-1.66 6 -2.32 6 -3 6 C-1.125 1.125 -1.125 1.125 0 0 Z " fill="#D60605" transform="translate(36,90)"/>
<path d="M0 0 C0.25523437 0.55558594 0.51046875 1.11117188 0.7734375 1.68359375 C2.1803308 4.34056103 3.83747417 6.64471107 5.625 9.0625 C6.33914062 10.03960937 7.05328125 11.01671875 7.7890625 12.0234375 C9.1810392 13.89744147 10.59024577 15.75888741 12.0234375 17.6015625 C16.10088581 22.93608973 19.49077567 28.4191324 22.5625 34.375 C22.92150391 35.05328857 23.28050781 35.73157715 23.65039062 36.43041992 C25.11815406 39.38242618 26.02655025 41.52727609 25.83984375 44.8515625 C25 47 25 47 23 49 C21.515 48.505 21.515 48.505 20 48 C20.99 47.34 21.98 46.68 23 46 C22.51546948 40.31043702 20.98244888 36.34860697 18.125 31.4375 C17.53803345 30.40846558 17.53803345 30.40846558 16.93920898 29.35864258 C13.2489212 23.07627239 8.90690034 17.41131309 4.28515625 11.79296875 C0.77802414 7.50647395 -0.24507799 5.51425468 0 0 Z " fill="#463130" transform="translate(4,10)"/>
<path d="M0 0 C2.97 0.33 5.94 0.66 9 1 C9.33 2.32 9.66 3.64 10 5 C6.26368246 7.5437291 3.3694781 8.526351 -1.125 8.9375 C-2.67574219 9.10572266 -2.67574219 9.10572266 -4.2578125 9.27734375 C-5.16273437 9.18582031 -6.06765625 9.09429687 -7 9 C-7.99 7.68 -8.98 6.36 -10 5 C-6.7 4.34 -3.4 3.68 0 3 C0 2.01 0 1.02 0 0 Z " fill="#C1976D" transform="translate(101,78)"/>
<path d="M0 0 C3.875 0.875 3.875 0.875 5 2 C5.2632246 5.94836905 5.08997373 8.60379269 3 12 C0.69 11.67 -1.62 11.34 -4 11 C-4 11.66 -4 12.32 -4 13 C-4.66 13 -5.32 13 -6 13 C-6.125 6.375 -6.125 6.375 -5 3 C-3.67696283 2.6278958 -2.34262065 2.29369827 -1 2 C-0.67 1.34 -0.34 0.68 0 0 Z " fill="#1F1B19" transform="translate(110,0)"/>
<path d="M0 0 C0.66 0.33 1.32 0.66 2 1 C1.21625 1.70125 0.4325 2.4025 -0.375 3.125 C-3.11653066 6.12762882 -3.81593417 8.1940741 -5 12 C-8 14 -8 14 -11.4375 13.8125 C-15 13 -15 13 -19 10 C-16.03 8.02 -13.06 6.04 -10 4 C-9.67 4.66 -9.34 5.32 -9 6 C-8.01 6.33 -7.02 6.66 -6 7 C-4.02 4.69 -2.04 2.38 0 0 Z " fill="#D70E0D" transform="translate(83,24)"/>
<path d="M0 0 C0.66 0.66 1.32 1.32 2 2 C1.65281133 4.083132 1.01784375 5.94971307 0.3125 7.9375 C-0.20135673 10.06071621 -0.20135673 10.06071621 0.94921875 12.08203125 C2.35623941 15.98925963 2.37784851 19.62749376 2.5 23.75 C2.75877151 30.06097302 3.30143252 35.88515706 5 42 C3.515 41.505 3.515 41.505 2 41 C-0.14960164 34.51488425 -0.37616814 28.22309941 -0.56640625 21.44726562 C-0.59605469 20.68736328 -0.62570313 19.92746094 -0.65625 19.14453125 C-0.67494141 18.46753174 -0.69363281 17.79053223 -0.71289062 17.09301758 C-0.99120817 14.43771897 -0.99120817 14.43771897 -3 10 C-6.96 9.67 -10.92 9.34 -15 9 C-15 8.67 -15 8.34 -15 8 C-10.71 7.34 -6.42 6.68 -2 6 C-1.34 4.02 -0.68 2.04 0 0 Z " fill="#814B4A" transform="translate(111,78)"/>
<path d="M0 0 C1.77503906 0.03480469 1.77503906 0.03480469 3.5859375 0.0703125 C5.36871094 0.09738281 5.36871094 0.09738281 7.1875 0.125 C8.10273438 0.14820312 9.01796875 0.17140625 9.9609375 0.1953125 C9.1484375 4.953125 9.1484375 4.953125 7.4609375 7.1328125 C3.48219491 8.8237781 -0.01615824 7.39014945 -4.0390625 6.1953125 C-4.6640625 4.3203125 -4.6640625 4.3203125 -5.0390625 2.1953125 C-3.0390625 0.1953125 -3.0390625 0.1953125 0 0 Z " fill="#E80000" transform="translate(13.0390625,73.8046875)"/>
<path d="M0 0 C0.95465783 2.16967689 1.14401212 3.56328793 0.3984375 5.82421875 C-0.35870385 7.5684743 -1.17609198 9.28627131 -2 11 C-3.918125 10.8453125 -3.918125 10.8453125 -5.875 10.6875 C-6.95394531 10.60048828 -6.95394531 10.60048828 -8.0546875 10.51171875 C-10 10 -10 10 -12 7 C-8.97016939 1.24332185 -6.50771286 -0.3615396 0 0 Z " fill="#E1CEA8" transform="translate(43,108)"/>
<path d="M0 0 C0.99 0 1.98 0 3 0 C1.84826645 2.46800047 0.95216435 4.04783565 -1 6 C-1.56883273 8.06043854 -1.94855684 10.12186341 -2.33984375 12.22265625 C-2.55769531 12.80917969 -2.77554688 13.39570312 -3 14 C-3.99 14.33 -4.98 14.66 -6 15 C-8.40119059 18.60178588 -8.43771322 21.50866369 -8.625 25.6875 C-8.66367187 26.38939453 -8.70234375 27.09128906 -8.7421875 27.81445312 C-8.8362334 29.54254655 -8.9191968 31.27123675 -9 33 C-8.34 33 -7.68 33 -7 33 C-7.33 33.99 -7.66 34.98 -8 36 C-8.66 35.67 -9.32 35.34 -10 35 C-12.09022519 26.00294373 -11.32213415 16.69330974 -7.1328125 8.49609375 C-6 7 -6 7 -3 6 C-1.84478498 3.52869082 -1.84478498 3.52869082 -1 1 C-0.67 0.67 -0.34 0.34 0 0 Z " fill="#B89200" transform="translate(47,54)"/>
<path d="M0 0 C1.05621 2.69364799 1.10377035 3.74441 -0.00390625 6.47265625 C-3.06009772 11.55098944 -5.14078228 15.00253941 -11 17 C-11.66 17.33 -12.32 17.66 -13 18 C-13.38730126 14.61111395 -13.17469717 13.26204576 -11.25 10.375 C-9.27282826 8.28798539 -7.37223421 6.60973036 -5 5 C-5.33 4.34 -5.66 3.68 -6 3 C-4.02 2.67 -2.04 2.34 0 2 C0 1.34 0 0.68 0 0 Z " fill="#BF946A" transform="translate(99,21)"/>
<path d="M0 0 C1.65 0 3.3 0 5 0 C4.67 0.99 4.34 1.98 4 3 C3.34 3 2.68 3 2 3 C2.01160156 3.91523437 2.02320312 4.83046875 2.03515625 5.7734375 C2.04417969 6.96195312 2.05320312 8.15046875 2.0625 9.375 C2.07410156 10.55835938 2.08570312 11.74171875 2.09765625 12.9609375 C2 16 2 16 1 18 C0.01 18 -0.98 18 -2 18 C-2 18.66 -2 19.32 -2 20 C-2.66 20 -3.32 20 -4 20 C-4.24954005 18.56589632 -4.47392642 17.12739928 -4.6875 15.6875 C-4.81511719 14.88699219 -4.94273438 14.08648437 -5.07421875 13.26171875 C-5 11 -5 11 -3.64453125 9.20703125 C-2 8 -2 8 0 8 C-0.185625 7.05125 -0.37125 6.1025 -0.5625 5.125 C-1 2 -1 2 0 0 Z " fill="#C0996F" transform="translate(103,0)"/>
<path d="M0 0 C11.01544944 0.82724719 11.01544944 0.82724719 16 3 C16.33 3.66 16.66 4.32 17 5 C15.02 5.99 15.02 5.99 13 7 C13.66 8.65 14.32 10.3 15 12 C12.56070254 10.07423885 10.19909405 8.19909405 8 6 C5.34462628 5.43479997 2.70855287 5.26211802 0 5 C-0.33 4.01 -0.66 3.02 -1 2 C-0.67 1.34 -0.34 0.68 0 0 Z " fill="#503323" transform="translate(91,59)"/>
<path d="M0 0 C0 1.66666667 0 3.33333333 0 5 C-1.34578125 5.41958984 -1.34578125 5.41958984 -2.71875 5.84765625 C-10.66193033 8.3996491 -18.264765 11.26977383 -25.80664062 14.85180664 C-30.68497422 17.10500859 -30.68497422 17.10500859 -34 16 C-24.68049758 11.20540069 -15.23784409 6.80994623 -5.640625 2.6015625 C-3.74535502 1.76780639 -1.85196059 0.9259803 0 0 Z " fill="#352F1A" transform="translate(92,11)"/>
<path d="M0 0 C0.99 0.33 1.98 0.66 3 1 C2.38125 1.556875 1.7625 2.11375 1.125 2.6875 C-3.4676982 7.68543628 -3.25320273 12.54333031 -3 19 C-2.67 18.34 -2.34 17.68 -2 17 C-1.34 17.33 -0.68 17.66 0 18 C0.33 18.99 0.66 19.98 1 21 C1.99 21.33 2.98 21.66 4 22 C3.67 22.99 3.34 23.98 3 25 C1.68 24.34 0.36 23.68 -1 23 C-0.175 23.78375 0.65 24.5675 1.5 25.375 C4 28 4 28 4 30 C0.7023101 29.08397503 -0.90834805 28.09928961 -3.25 25.5625 C-6.05551559 19.85127183 -6.87943568 14.31239225 -5.23046875 8.1015625 C-2.63551816 1.31775908 -2.63551816 1.31775908 0 0 Z " fill="#6B665F" transform="translate(11,89)"/>
<path d="M0 0 C1.98 0.66 3.96 1.32 6 2 C4.5 4.4375 4.5 4.4375 2 7 C0.089547 7.21643476 -1.82151423 7.42891396 -3.73535156 7.61303711 C-8.64067566 8.45121506 -13.02912377 11.03905459 -17.46484375 13.20507812 C-21.83916697 15.26555576 -25.04177524 16.49899067 -30 16 C-29 14 -29 14 -27.35546875 13.32421875 C-26.64003906 13.11410156 -25.92460938 12.90398438 -25.1875 12.6875 C-21.32505891 11.48202476 -17.6527452 10.04052458 -13.9375 8.4375 C-9.31872253 6.47407603 -4.90504271 5.03760519 0 4 C0 2.68 0 1.36 0 0 Z " fill="#A1905C" transform="translate(94,4)"/>
<path d="M0 0 C0.33 0 0.66 0 1 0 C1.33 4.29 1.66 8.58 2 13 C-1 15 -1 15 -3.6875 14.625 C-4.450625 14.41875 -5.21375 14.2125 -6 14 C-6.433125 12.576875 -6.433125 12.576875 -6.875 11.125 C-7.76825109 7.94788422 -7.76825109 7.94788422 -10 6 C-3.375 4.75 -3.375 4.75 0 7 C0 4.69 0 2.38 0 0 Z " fill="#65584D" transform="translate(112,58)"/>
<path d="M0 0 C2.25 0.125 2.25 0.125 5 1 C9 5.97297297 9 5.97297297 9 10 C9.99 10.33 10.98 10.66 12 11 C13.1875 13.5625 13.1875 13.5625 14 16 C10.93313028 15.67140682 10.08708852 15.10394436 8.0625 12.6875 C7.381875 11.800625 6.70125 10.91375 6 10 C5.113125 9.360625 4.22625 8.72125 3.3125 8.0625 C0.42322693 5.48558078 0.25790313 3.78257924 0 0 Z " fill="#874744" transform="translate(19,0)"/>
<path d="M0 0 C5.61 0 11.22 0 17 0 C16.01 0.495 16.01 0.495 15 1 C15 1.99 15 2.98 15 4 C10.05 5.485 10.05 5.485 5 7 C3.29115995 5.37660195 1.62553283 3.70680947 0 2 C0 1.34 0 0.68 0 0 Z " fill="#5F311C" transform="translate(86,77)"/>
<path d="M0 0 C2.475 0.99 2.475 0.99 5 2 C5.33 4.31 5.66 6.62 6 9 C5.34 9 4.68 9 4 9 C4 10.65 4 12.3 4 14 C2.0625 13.625 2.0625 13.625 0 13 C-1.57170996 9.85658007 -1.23175783 6.44228549 -1 3 C-0.67 2.01 -0.34 1.02 0 0 Z " fill="#281910" transform="translate(17,96)"/>
<path d="M0 0 C0.99 0 1.98 0 3 0 C3.5 2.6875 3.5 2.6875 3 6 C0.57687546 8.12888798 -2.12962544 9.5543369 -5 11 C-5.6290625 11.35320313 -6.258125 11.70640625 -6.90625 12.0703125 C-9.49419938 13.21943928 -11.95999559 13.65999927 -14.75 14.125 C-15.73484375 14.29257812 -16.7196875 14.46015625 -17.734375 14.6328125 C-18.48203125 14.75398438 -19.2296875 14.87515625 -20 15 C-20.33 14.34 -20.66 13.68 -21 13 C-18.62586674 12.0394728 -16.25074481 11.08152647 -13.875 10.125 C-13.20984375 9.85558594 -12.5446875 9.58617187 -11.859375 9.30859375 C-7.9442592 7.73487073 -4.02043463 6.290046 0 5 C0 4.01 0 3.02 0 2 C0 1.34 0 0.68 0 0 Z " fill="#E6D739" transform="translate(91,10)"/>
<path d="M0 0 C3.54243452 1.36591169 6.92627929 2.90931484 10.3125 4.625 C11.63701172 5.29402344 11.63701172 5.29402344 12.98828125 5.9765625 C13.98408203 6.48316406 13.98408203 6.48316406 15 7 C15 7.33 15 7.66 15 8 C9.9697924 7.47462276 4.98114761 6.89405214 0 6 C0 7.98 0 9.96 0 12 C-0.99 12.33 -1.98 12.66 -3 13 C-2.88490339 11.58249437 -2.75746342 10.16598831 -2.625 8.75 C-2.55539063 7.96109375 -2.48578125 7.1721875 -2.4140625 6.359375 C-1.98492887 3.914123 -1.21399362 2.15163097 0 0 Z " fill="#4E2712" transform="translate(91,53)"/>
<path d="M0 0 C0.33 0.66 0.66 1.32 1 2 C0.67 2.66 0.34 3.32 0 4 C-0.26124367 6.58921503 -0.46684823 9.15445036 -0.625 11.75 C-0.6765625 12.45382813 -0.728125 13.15765625 -0.78125 13.8828125 C-1.04724101 18.09172906 -0.87651701 21.83981477 0 26 C-0.99 26.33 -1.98 26.66 -3 27 C-3.66 27.99 -4.32 28.98 -5 30 C-5.66 30 -6.32 30 -7 30 C-7 29.34 -7 28.68 -7 28 C-7.66 28 -8.32 28 -9 28 C-8 25 -8 25 -5.44921875 23.20703125 C-2.70252383 21.20753939 -2.70252383 21.20753939 -2.58203125 18.01171875 C-2.65808594 16.91472656 -2.73414063 15.81773438 -2.8125 14.6875 C-3.02008324 9.56134718 -2.84512701 5.77562286 -1 1 C-0.67 0.67 -0.34 0.34 0 0 Z " fill="#5F3C1D" transform="translate(38,65)"/>
<path d="M0 0 C0.66 0.33 1.32 0.66 2 1 C0.50260417 2.20442708 -0.99479167 3.40885417 -2.4921875 4.61328125 C-4.25292107 6.12270545 -4.25292107 6.12270545 -6 9 C-6 10.32 -6 11.64 -6 13 C-4.68 12.34 -3.36 11.68 -2 11 C-2.33 11.99 -2.66 12.98 -3 14 C-3.66 14 -4.32 14 -5 14 C-5.33 14.99 -5.66 15.98 -6 17 C-6.66 17 -7.32 17 -8 17 C-8 17.66 -8 18.32 -8 19 C-9.32 18.34 -10.64 17.68 -12 17 C-11.34 16.67 -10.68 16.34 -10 16 C-9.09050674 11.70057734 -8.84073618 8.25063401 -10 4 C-9.01 4.33 -8.02 4.66 -7 5 C-6.5875 4.54625 -6.175 4.0925 -5.75 3.625 C-3.90766039 1.91425607 -2.34097216 0.90618277 0 0 Z " fill="#685743" transform="translate(93,25)"/>
<path d="M0 0 C0.66 0.33 1.32 0.66 2 1 C1.979375 2.134375 1.95875 3.26875 1.9375 4.4375 C1.58422523 7.81575674 1.58422523 7.81575674 3 9 C3.81238097 14.19923823 1.21573602 18.4597195 -1 23 C-1.66 23 -2.32 23 -3 23 C-2.69475674 19.35352047 -2.37959487 15.70796652 -2.0625 12.0625 C-1.93198242 10.50112305 -1.93198242 10.50112305 -1.79882812 8.90820312 C-1.71181641 7.91884766 -1.62480469 6.92949219 -1.53515625 5.91015625 C-1.456604 4.99371338 -1.37805176 4.07727051 -1.29711914 3.13305664 C-1 1 -1 1 0 0 Z " fill="#562811" transform="translate(87,97)"/>
<path d="M0 0 C1.36328912 3.68088063 0.58375966 5.49905759 -1 9 C-1.33 10.010625 -1.66 11.02125 -2 12.0625 C-3.71910112 17.11235955 -3.71910112 17.11235955 -5 19 C-7.625 20.25 -7.625 20.25 -10 21 C-9.73445313 20.43152344 -9.46890625 19.86304687 -9.1953125 19.27734375 C-7.51617803 15.60653519 -6.04341358 12.16280092 -5 8.25 C-3.91804975 4.73366168 -2.45622982 2.7018528 0 0 Z " fill="#BE946A" transform="translate(84,34)"/>
<path d="M0 0 C-0.33 0.99 -0.66 1.98 -1 3 C-2.98 3.33 -4.96 3.66 -7 4 C-7.33 4.99 -7.66 5.98 -8 7 C-8.99 7 -9.98 7 -11 7 C-11.66 8.65 -12.32 10.3 -13 12 C-14.32 10.68 -15.64 9.36 -17 8 C-16.01 7.34 -15.02 6.68 -14 6 C-14.33 5.34 -14.66 4.68 -15 4 C-13.44219668 3.32243118 -11.87849904 2.65840543 -10.3125 2 C-9.44238281 1.62875 -8.57226562 1.2575 -7.67578125 0.875 C-4.9427998 -0.01870488 -2.85299066 -0.16449676 0 0 Z " fill="#E5D0A6" transform="translate(100,20)"/>
<path d="M0 0 C5.68081848 4.50547673 7.38374822 12.4047398 8.31640625 19.359375 C8.43822266 20.54273438 8.43822266 20.54273438 8.5625 21.75 C8.64628906 22.54921875 8.73007813 23.3484375 8.81640625 24.171875 C8.87699219 24.77515625 8.93757813 25.3784375 9 26 C8.01 25.67 7.02 25.34 6 25 C5.81824219 24.03320312 5.63648437 23.06640625 5.44921875 22.0703125 C4.01149727 14.57313977 2.4083573 7.259233 0 0 Z " fill="#C90000" transform="translate(101,94)"/>
<path d="M0 0 C2.97 0.99 5.94 1.98 9 3 C9.33 2.34 9.66 1.68 10 1 C11.32 1.99 12.64 2.98 14 4 C12.02 6.31 10.04 8.62 8 11 C4.31993178 7.61831569 2.0214155 4.57478244 0 0 Z " fill="#C60000" transform="translate(39,44)"/>
<path d="M0 0 C2.475 0.495 2.475 0.495 5 1 C5.33 1.99 5.66 2.98 6 4 C6.9590625 4.433125 6.9590625 4.433125 7.9375 4.875 C10 6 10 6 11.3125 8.1875 C12.17572311 11.71886726 11.69397137 14.460746 11 18 C6.125 16.25 6.125 16.25 5 14 C6.32 14.33 7.64 14.66 9 15 C8.81870185 11.56206661 8.81870185 11.56206661 8 8 C6.21734114 6.6501992 6.21734114 6.6501992 4 6 C1.75 4.5625 1.75 4.5625 0 3 C0 2.01 0 1.02 0 0 Z " fill="#23211B" transform="translate(101,47)"/>
<path d="M0 0 C0.66 0.33 1.32 0.66 2 1 C1 6 0 11 -1 16 C0.65 16.33 2.3 16.66 4 17 C3.67 17.99 3.34 18.98 3 20 C2.38125 19.814375 1.7625 19.62875 1.125 19.4375 C-1.04160178 18.76313824 -1.04160178 18.76313824 -3 20 C-4.49179165 12.67665915 -3.3513596 6.7027192 0 0 Z " fill="#323130" transform="translate(106,11)"/>
<path d="M0 0 C0.99 0.495 0.99 0.495 2 1 C2 1.66 2 2.32 2 3 C2.87785156 3.39638672 2.87785156 3.39638672 3.7734375 3.80078125 C6.08227211 5.04431147 7.70863442 6.40568775 9.625 8.1875 C14.12509305 12.22909301 18.99084668 15.62292738 24 19 C23.34 19.99 22.68 20.98 22 22 C22 21.34 22 20.68 22 20 C21.4225 19.71125 20.845 19.4225 20.25 19.125 C15.5 16.75 10.75 14.375 6 12 C7.32 11.67 8.64 11.34 10 11 C9.36191406 10.54109375 8.72382812 10.0821875 8.06640625 9.609375 C7.24011719 8.99578125 6.41382813 8.3821875 5.5625 7.75 C4.32693359 6.84507813 4.32693359 6.84507813 3.06640625 5.921875 C0.88728296 3.89516676 0.35298081 2.9008605 0 0 Z " fill="#36281E" transform="translate(40,95)"/>
<path d="M0 0 C0.66 0 1.32 0 2 0 C3.32 3.63 4.64 7.26 6 11 C3 13 3 13 0 13 C-1.57170996 9.85658007 -1.23175783 6.44228549 -1 3 C-0.67 2.01 -0.34 1.02 0 0 Z " fill="#906548" transform="translate(78,88)"/>
<path d="M0 0 C0.33 0 0.66 0 1 0 C1.3690205 14.78132118 1.3690205 14.78132118 -1 21 C-2.32 20.67 -3.64 20.34 -5 20 C-4.690625 19.0925 -4.38125 18.185 -4.0625 17.25 C-2.48580283 12.42716159 -1.74340875 7.96826333 -1.28125 2.92578125 C-1 1 -1 1 0 0 Z " fill="#673600" transform="translate(85,99)"/>
<path d="M0 0 C0.33 0 0.66 0 1 0 C1.07476562 1.07378906 1.14953125 2.14757813 1.2265625 3.25390625 C2.1609039 14.41108255 2.1609039 14.41108255 9 23 C6.525 22.01 6.525 22.01 4 21 C3.67 21.99 3.34 22.98 3 24 C2.30093058 22.40084119 1.61610532 20.79544955 0.9375 19.1875 C0.55464844 18.29417969 0.17179687 17.40085937 -0.22265625 16.48046875 C-1 14 -1 14 0 11 C-0.66 10.67 -1.32 10.34 -2 10 C-1.34 6.7 -0.68 3.4 0 0 Z " fill="#241A0E" transform="translate(48,61)"/>
<path d="M0 0 C0.99 0 1.98 0 3 0 C3 1.98 3 3.96 3 6 C2.67 6 2.34 6 2 6 C1.63447197 7.41377782 1.28304505 8.83120576 0.9375 10.25 C0.74027344 11.03890625 0.54304688 11.8278125 0.33984375 12.640625 C-0.01497267 15.10394822 0.23122456 16.65604132 1 19 C0.34 19 -0.32 19 -1 19 C-2.4097034 16.1805932 -2.16984647 13.76732774 -2.1875 10.625 C-2.20167969 9.48289062 -2.21585938 8.34078125 -2.23046875 7.1640625 C-2.01170034 4.16063184 -1.57080637 2.52074066 0 0 Z " fill="#6C4C07" transform="translate(47,56)"/>
<path d="M0 0 C0.66 0.33 1.32 0.66 2 1 C0.85210257 8.09883934 -1.11450374 14.41658619 -4 21 C-4.66 20.67 -5.32 20.34 -6 20 C-5.7834375 19.26394531 -5.566875 18.52789062 -5.34375 17.76953125 C-5.0653125 16.79371094 -4.786875 15.81789063 -4.5 14.8125 C-4.2215625 13.84957031 -3.943125 12.88664062 -3.65625 11.89453125 C-3.03322392 9.14654124 -2.87697188 6.80401584 -3 4 C-2.01 3.67 -1.02 3.34 0 3 C0 2.01 0 1.02 0 0 Z " fill="#855A3F" transform="translate(79,50)"/>
<path d="M0 0 C6.09589625 6.09589625 6.89599941 17.80715351 8 26 C7.01 26 6.02 26 5 26 C4.35254908 22.79199093 3.70733107 19.58353661 3.0625 16.375 C2.88009766 15.47136719 2.69769531 14.56773438 2.50976562 13.63671875 C1.59931266 9.10100762 0.7212778 4.57062353 0 0 Z " fill="#670100" transform="translate(100,94)"/>
<path d="M0 0 C3.375 0.0625 3.375 0.0625 7 1 C9.4375 3.5625 9.4375 3.5625 11 6 C8.92446352 6.5534764 7.15634036 7 5 7 C5 6.34 5 5.68 5 5 C4.21625 4.87625 3.4325 4.7525 2.625 4.625 C0 4 0 4 -2 2 C-1.34 1.34 -0.68 0.68 0 0 Z " fill="#F90707" transform="translate(96,67)"/>
<path d="M0 0 C3.4375 0.25 3.4375 0.25 7 1 C9.4294516 4.6441774 9.16179575 6.71241272 9 11 C7.68 10.67 6.36 10.34 5 10 C4.7525 8.88625 4.505 7.7725 4.25 6.625 C3.38994661 2.95384802 3.38994661 2.95384802 0.875 1.5625 C0.25625 1.376875 -0.3625 1.19125 -1 1 C-0.67 0.67 -0.34 0.34 0 0 Z " fill="#C8A501" transform="translate(103,33)"/>
<path d="M0 0 C0.66 0.33 1.32 0.66 2 1 C1.97679687 1.62648438 1.95359375 2.25296875 1.9296875 2.8984375 C1.91164062 3.71570313 1.89359375 4.53296875 1.875 5.375 C1.84019531 6.59316406 1.84019531 6.59316406 1.8046875 7.8359375 C1.78629949 10.21342243 1.78629949 10.21342243 4 12 C4.38932033 13.98985949 4.71887936 15.99199544 5 18 C5.31674575 19.33737094 5.64270064 20.67288808 6 22 C4.62437146 20.71034824 3.29233607 19.37310707 2 18 C2 17.34 2 16.68 2 16 C1.34 16 0.68 16 0 16 C-0.19441368 13.7089095 -0.38033135 11.41709663 -0.5625 9.125 C-0.71912109 7.21074219 -0.71912109 7.21074219 -0.87890625 5.2578125 C-1 2 -1 2 0 0 Z " fill="#553902" transform="translate(40,74)"/>
<path d="M0 0 C0.66 0 1.32 0 2 0 C2.66 0.66 3.32 1.32 4 2 C4.99 2.66 5.98 3.32 7 4 C5.02 4.66 3.04 5.32 1 6 C1 7.98 1 9.96 1 12 C-0.32 12 -1.64 12 -3 12 C-3 7.01878994 -2.36762238 4.43929196 0 0 Z M-6 9 C-5.34 9.33 -4.68 9.66 -4 10 C-4.99 10.66 -5.98 11.32 -7 12 C-6.67 11.01 -6.34 10.02 -6 9 Z " fill="#1A1205" transform="translate(101,27)"/>
<path d="M0 0 C-1 3 -1 3 -3.16796875 4.1484375 C-6.26768713 5.08049075 -9.08521293 5.41221184 -12.3125 5.625 C-13.38113281 5.69976562 -14.44976562 5.77453125 -15.55078125 5.8515625 C-16.76314453 5.92503906 -16.76314453 5.92503906 -18 6 C-15.05442083 4.03628055 -12.24961274 2.70234663 -9 1.3125 C-7.4221875 0.62607422 -7.4221875 0.62607422 -5.8125 -0.07421875 C-3 -1 -3 -1 0 0 Z " fill="#D6BA05" transform="translate(69,28)"/>
<path d="M0 0 C-7.20639168 3.71463488 -14.40867673 7.14485629 -22 10 C-22.66 9.34 -23.32 8.68 -24 8 C-20.56928818 6.46350798 -17.12948082 4.94855877 -13.6875 3.4375 C-12.71103516 2.99986328 -11.73457031 2.56222656 -10.72851562 2.11132812 C-9.79072266 1.70205078 -8.85292969 1.29277344 -7.88671875 0.87109375 C-7.02264404 0.48880615 -6.15856934 0.10651855 -5.26831055 -0.28735352 C-3 -1 -3 -1 0 0 Z " fill="#E3D569" transform="translate(91,12)"/>
<path d="M0 0 C0.99 0.33 1.98 0.66 3 1 C2.75 2.875 2.75 2.875 2 5 C-1.28323275 7.16817257 -4.3822782 7.37275727 -8.25 7.625 C-9.32765625 7.69976562 -10.4053125 7.77453125 -11.515625 7.8515625 C-12.33546875 7.90054688 -13.1553125 7.94953125 -14 8 C-14 7.34 -14 6.68 -14 6 C-13.11248047 5.81824219 -13.11248047 5.81824219 -12.20703125 5.6328125 C-7.96196415 4.73255357 -3.97560339 3.79543379 0 2 C0 1.34 0 0.68 0 0 Z " fill="#E7D2A6" transform="translate(108,79)"/>
<path d="M0 0 C6.39313858 0.96722761 12.46908575 4.36133395 17.6875 8.0625 C18.56640625 10.29296875 18.56640625 10.29296875 18.6875 12.0625 C17.6975 12.0625 16.7075 12.0625 15.6875 12.0625 C15.3575 11.0725 15.0275 10.0825 14.6875 9.0625 C8.59330695 4.91352412 1.90205388 3.09095768 -5.3125 2.0625 C-3.3125 0.0625 -3.3125 0.0625 0 0 Z " fill="#332819" transform="translate(100.3125,39.9375)"/>
<path d="M0 0 C0 0.66 0 1.32 0 2 C-2.38990101 3.03712685 -4.78526874 4.05468019 -7.1875 5.0625 C-7.86103516 5.35705078 -8.53457031 5.65160156 -9.22851562 5.95507812 C-13.21065511 7.60620913 -15.85190335 8.40954741 -20 7 C-20 6.34 -20 5.68 -20 5 C-19.11957031 4.80664062 -18.23914062 4.61328125 -17.33203125 4.4140625 C-16.17058594 4.15367188 -15.00914063 3.89328125 -13.8125 3.625 C-12.66394531 3.36976562 -11.51539063 3.11453125 -10.33203125 2.8515625 C-6.89369885 1.97283277 -3.53100334 0 0 0 Z " fill="#D4CB71" transform="translate(71,24)"/>
<path d="M0 0 C0.66 0.66 1.32 1.32 2 2 C1.6875 3.875 1.6875 3.875 1 6 C-0.0809485 9.35094035 0.14626635 11.58506541 1 15 C0.34 15 -0.32 15 -1 15 C-1.66 13.35 -2.32 11.7 -3 10 C-6.96 9.67 -10.92 9.34 -15 9 C-15 8.67 -15 8.34 -15 8 C-10.71 7.34 -6.42 6.68 -2 6 C-1.34 4.02 -0.68 2.04 0 0 Z " fill="#725C56" transform="translate(111,78)"/>
<path d="M0 0 C3.37921168 1.19907511 5.25360904 2.87487934 7 6 C6.57421875 8.1328125 6.57421875 8.1328125 6 10 C4.8450079 9.26418258 3.70125815 8.51069961 2.5625 7.75 C1.60537109 7.12351562 1.60537109 7.12351562 0.62890625 6.484375 C-1.29902057 4.72751123 -1.61479436 3.53910197 -2 1 C-1.34 0.67 -0.68 0.34 0 0 Z " fill="#8D5453" transform="translate(7,37)"/>
<path d="M0 0 C0 0.66 0 1.32 0 2 C0.86625 2.061875 0.86625 2.061875 1.75 2.125 C5.11600658 3.43400256 6.1308624 6.00937984 8 9 C8.66 9.33 9.32 9.66 10 10 C10 10.66 10 11.32 10 12 C6.2047869 10.50902342 4.38957269 8.24299151 2 5 C0.35 5.33 -1.3 5.66 -3 6 C-3.33 4.35 -3.66 2.7 -4 1 C-2 0 -2 0 0 0 Z " fill="#61453D" transform="translate(31,93)"/>
<path d="M0 0 C5.50588235 0.48941176 5.50588235 0.48941176 7.875 2.9375 C9 5 9 5 9 7 C5.625 6.6875 5.625 6.6875 2 6 C0 3 0 3 0 0 Z " fill="#100000" transform="translate(45,39)"/>
<path d="M0 0 C4.95 0 9.9 0 15 0 C14.67 0.66 14.34 1.32 14 2 C12.67851173 2.37756808 11.34164079 2.7018576 10 3 C9.175 3.350625 8.35 3.70125 7.5 4.0625 C5 5 5 5 1 5 C0 1.125 0 1.125 0 0 Z " fill="#595860" transform="translate(27,107)"/>
<path d="M0 0 C3.16115776 1.36983503 3.9927092 1.9890638 6 5 C6.125 7.6875 6.125 7.6875 6 10 C5.01 10.495 5.01 10.495 4 11 C3.34 10.67 2.68 10.34 2 10 C2 8.02 2 6.04 2 4 C1.34 4 0.68 4 0 4 C0 2.68 0 1.36 0 0 Z " fill="#E5CC04" transform="translate(90,87)"/>
<path d="M0 0 C3.01962385 1.20784954 5.45378681 2.99940392 8 5 C7.67 5.66 7.34 6.32 7 7 C3.44219804 6.39009109 0.3171411 5.4216319 -3 4 C-2.67 3.01 -2.34 2.02 -2 1 C-1.34 0.67 -0.68 0.34 0 0 Z " fill="#393635" transform="translate(103,73)"/>
<path d="M0 0 C0.66 0 1.32 0 2 0 C1.88541307 1.43836751 1.75790884 2.87570966 1.625 4.3125 C1.55539063 5.11300781 1.48578125 5.91351563 1.4140625 6.73828125 C1 9 1 9 -1 12 C-3.125 13.1875 -3.125 13.1875 -5 14 C-3.46527032 9.27775484 -1.76054874 4.64144669 0 0 Z " fill="#784C36" transform="translate(101,18)"/>
<path d="M0 0 C0.99 0.33 1.98 0.66 3 1 C2.01 3.64 1.02 6.28 0 9 C-1.32 9 -2.64 9 -4 9 C-3.6875 5.625 -3.6875 5.625 -3 2 C-2.01 1.34 -1.02 0.68 0 0 Z " fill="#6E6960" transform="translate(41,110)"/>
<path d="M0 0 C1.98 0.66 3.96 1.32 6 2 C4.5 4.5 4.5 4.5 2 7 C-0.80138565 7.45442324 -3.13800875 7.23849927 -6 7 C-6 6.34 -6 5.68 -6 5 C-4.02 4.67 -2.04 4.34 0 4 C0 2.68 0 1.36 0 0 Z " fill="#726654" transform="translate(94,4)"/>
<path d="M0 0 C-0.33 2.31 -0.66 4.62 -1 7 C-1.99 7 -2.98 7 -4 7 C-4.433125 5.824375 -4.433125 5.824375 -4.875 4.625 C-5.84912254 1.90328368 -5.84912254 1.90328368 -8 0 C-2.25 -1.125 -2.25 -1.125 0 0 Z " fill="#E7D3A7" transform="translate(110,64)"/>
<path d="M0 0 C2.28062828 3.42094242 2.21925007 4.68187222 2.125 8.6875 C2.10695313 9.68136719 2.08890625 10.67523438 2.0703125 11.69921875 C2.03550781 12.83810547 2.03550781 12.83810547 2 14 C1.34 13.67 0.68 13.34 0 13 C0 10.69 0 8.38 0 6 C-1.32 6.99 -2.64 7.98 -4 9 C-4.66 8.67 -5.32 8.34 -6 8 C-5.38125 7.236875 -4.7625 6.47375 -4.125 5.6875 C-1.94402948 3.00374191 -1.94402948 3.00374191 0 0 Z " fill="#331709" transform="translate(88,92)"/>
<path d="M0 0 C0.66 0.33 1.32 0.66 2 1 C1.51789063 1.39832031 1.03578125 1.79664062 0.5390625 2.20703125 C-0.09257813 2.73683594 -0.72421875 3.26664063 -1.375 3.8125 C-2.00148438 4.33457031 -2.62796875 4.85664063 -3.2734375 5.39453125 C-5.2221048 7.08225739 -5.2221048 7.08225739 -7 10 C-7.99 9.34 -8.98 8.68 -10 8 C-8.61469871 4.57282232 -7.32522773 3.2706507 -4 1.6875 C-3.29875 1.34074219 -2.5975 0.99398438 -1.875 0.63671875 C-1.25625 0.42660156 -0.6375 0.21648438 0 0 Z " fill="#D9D9D8" transform="translate(84,22)"/>
<path d="M0 0 C0 0.99 0 1.98 0 3 C-1.32 3.33 -2.64 3.66 -4 4 C-4 7.3 -4 10.6 -4 14 C-4.66 14 -5.32 14 -6 14 C-7.21818182 6.69090909 -7.21818182 6.69090909 -6.25 3.625 C-4.49708919 1.34621595 -2.94980997 0 0 0 Z " fill="#1F1A15" transform="translate(103,5)"/>
<path d="M0 0 C0.66 0 1.32 0 2 0 C3.85776765 3.13498292 4.20140476 5.37471432 4 9 C2.35 9 0.7 9 -1 9 C-1.33 7.68 -1.66 6.36 -2 5 C-1.01 4.67 -0.02 4.34 1 4 C0.67 2.68 0.34 1.36 0 0 Z " fill="#77643C" transform="translate(62,111)"/>
<path d="M0 0 C-2.53341263 3.09639322 -5.12990885 4.13120403 -9 5 C-11.375 4.125 -11.375 4.125 -13 3 C-8.37802694 0.78145293 -5.23175837 -0.38281159 0 0 Z " fill="#E7DF90" transform="translate(69,21)"/>
<path d="M0 0 C0.99 0.33 1.98 0.66 3 1 C2.67 3.64 2.34 6.28 2 9 C1.34 8.34 0.68 7.68 0 7 C-0.33 7.66 -0.66 8.32 -1 9 C-1.66 9 -2.32 9 -3 9 C-3.33 7.02 -3.66 5.04 -4 3 C-1.525 3.495 -1.525 3.495 1 4 C0.67 2.68 0.34 1.36 0 0 Z " fill="#603A18" transform="translate(88,86)"/>
<path d="M0 0 C2.475 0.495 2.475 0.495 5 1 C5.33 1.99 5.66 2.98 6 4 C6.99 4.33 7.98 4.66 9 5 C7.02 5.99 7.02 5.99 5 7 C2.5 5.1875 2.5 5.1875 0 3 C0 2.01 0 1.02 0 0 Z " fill="#0D0802" transform="translate(101,47)"/>
<path d="M0 0 C3.14737182 0.69941596 6.02588876 1.76078698 9 3 C9 3.99 9 4.98 9 6 C3.50847458 5.38983051 3.50847458 5.38983051 1.125 3.5625 C0 2 0 2 0 0 Z " fill="#E2CDA3" transform="translate(10,112)"/>
<path d="M0 0 C2 1.375 2 1.375 4 3 C4 3.66 4 4.32 4 5 C10.06050614 6.0812391 10.06050614 6.0812391 16 5 C16 5.66 16 6.32 16 7 C12.79337112 8.60331444 9.47896647 8.48652213 6 8 C2.96034366 6.1891409 1.39577769 5.09599977 0.1875 1.75 C0.125625 1.1725 0.06375 0.595 0 0 Z " fill="#55403F" transform="translate(21,21)"/>
<path d="M0 0 C1.98 0 3.96 0 6 0 C4.35 3.3 2.7 6.6 1 10 C0.01 9.67 -0.98 9.34 -2 9 C-0.79618552 6.50638429 0.45428722 4.31856917 2 2 C1.34 1.34 0.68 0.68 0 0 Z " fill="#542C0B" transform="translate(50,46)"/>
<path d="M0 0 C0.66 0 1.32 0 2 0 C1.67 0.99 1.34 1.98 1 3 C0.34 3 -0.32 3 -1 3 C-1.33 3.99 -1.66 4.98 -2 6 C-2.66 6 -3.32 6 -4 6 C-4 6.66 -4 7.32 -4 8 C-5.32 7.34 -6.64 6.68 -8 6 C-7.34 5.67 -6.68 5.34 -6 5 C-4.86649466 2.98330173 -4.86649466 2.98330173 -4 1 C-3.01 1 -2.02 1 -1 1 C-0.67 0.67 -0.34 0.34 0 0 Z " fill="#76513A" transform="translate(89,36)"/>
<path d="M0 0 C-10.37357631 5.55580866 -10.37357631 5.55580866 -16 6 C-14.55625108 3.11250216 -12.58631039 2.6524799 -9.6875 1.3125 C-8.72199219 0.85488281 -7.75648437 0.39726562 -6.76171875 -0.07421875 C-3.90125812 -1.03310018 -2.75742037 -1.08069919 0 0 Z " fill="#1C1915" transform="translate(74,22)"/>
<path d="M0 0 C0.66 0 1.32 0 2 0 C2.66 3.3 3.32 6.6 4 10 C3.01 10 2.02 10 1 10 C-0.60725635 6.78548731 -0.05748185 3.56387464 0 0 Z " fill="#9A704F" transform="translate(77,91)"/>
<path d="M0 0 C3.68754757 0.49831724 5.60490662 1.10067643 8 4 C6.68 4 5.36 4 4 4 C3.67 4.99 3.34 5.98 3 7 C0 3.375 0 3.375 0 0 Z " fill="#CC0000" transform="translate(24,32)"/>
<path d="M0 0 C3.625 0.375 3.625 0.375 7 1 C5.02 1.99 5.02 1.99 3 3 C3 3.99 3 4.98 3 6 C1.35 5.67 -0.3 5.34 -2 5 C-2 2 -2 2 0 0 Z " fill="#BC0000" transform="translate(93,65)"/>
<path d="M0 0 C0.66 0.66 1.32 1.32 2 2 C4.57061311 2.64767793 4.57061311 2.64767793 7 3 C3.46588679 5.12046792 0.05606165 5.53199289 -4 6 C-2.68 4.02 -1.36 2.04 0 0 Z " fill="#ECDD35" transform="translate(43,31)"/>
<path d="M0 0 C1.65 0.99 3.3 1.98 5 3 C4.50168276 6.68754757 3.89932357 8.60490662 1 11 C0.67 10.01 0.34 9.02 0 8 C0.66 8 1.32 8 2 8 C1.34 5.36 0.68 2.72 0 0 Z " fill="#987E1D" transform="translate(112,47)"/>
<path d="M0 0 C0.226875 0.515625 0.45375 1.03125 0.6875 1.5625 C2.21152528 4.39283267 4.08367853 6.79879341 6.07421875 9.31640625 C6.37972656 9.87199219 6.68523438 10.42757813 7 11 C6.67 11.99 6.34 12.98 6 14 C-0.27808989 6.25702247 -0.27808989 6.25702247 0 0 Z " fill="#524343" transform="translate(4,10)"/>
<path d="M0 0 C0.33 0 0.66 0 1 0 C1.17942163 3.94727588 1.09350689 6.5980513 -1 10 C-1.66 9.67 -2.32 9.34 -3 9 C-3 7.02 -3 5.04 -3 3 C-2.01 2.67 -1.02 2.34 0 2 C0 1.34 0 0.68 0 0 Z " fill="#615047" transform="translate(114,2)"/>
<path d="M0 0 C0 3.93169105 -1.39419615 5.16427228 -4 8 C-4.66 8 -5.32 8 -6 8 C-6.33 9.32 -6.66 10.64 -7 12 C-6.7589852 5.85412262 -6.7589852 5.85412262 -4.59765625 3.421875 C-3.11953029 2.21155069 -1.56352047 1.09779097 0 0 Z " fill="#C79E73" transform="translate(21,90)"/>
<path d="M0 0 C0.33 0 0.66 0 1 0 C1 3.63 1 7.26 1 11 C0.01 10.34 -0.98 9.68 -2 9 C-2.99 9.495 -2.99 9.495 -4 10 C-3.625 7.0625 -3.625 7.0625 -3 4 C-2.34 3.67 -1.68 3.34 -1 3 C-0.67 2.01 -0.34 1.02 0 0 Z " fill="#734F38" transform="translate(75,81)"/>
<path d="M0 0 C-0.99 0.33 -1.98 0.66 -3 1 C-3 1.66 -3 2.32 -3 3 C-5.8125 4.125 -5.8125 4.125 -9 5 C-9.99 4.34 -10.98 3.68 -12 3 C-10.3789897 2.30314502 -8.75303934 1.61777139 -7.125 0.9375 C-6.22007813 0.55464844 -5.31515625 0.17179687 -4.3828125 -0.22265625 C-2 -1 -2 -1 0 0 Z " fill="#71706A" transform="translate(94,19)"/>
<path d="M0 0 C0.88492145 2.47778006 1.11637742 3.66056586 0.25 6.1875 C-1 8 -1 8 -4 9 C-3.38461538 3.46153846 -3.38461538 3.46153846 -1.4375 1.125 C-0.963125 0.75375 -0.48875 0.3825 0 0 Z " fill="#653725" transform="translate(82,61)"/>
<path d="M0 0 C0.99 0 1.98 0 3 0 C3.33 2.31 3.66 4.62 4 7 C1.525 6.01 1.525 6.01 -1 5 C-0.67 3.35 -0.34 1.7 0 0 Z " fill="#EDEDEC" transform="translate(107,56)"/>
<path d="M0 0 C0.33 0.99 0.66 1.98 1 3 C0.01 3.99 -0.98 4.98 -2 6 C-4.4375 5.1875 -4.4375 5.1875 -7 4 C-7.33 3.01 -7.66 2.02 -8 1 C-6.865625 1.020625 -5.73125 1.04125 -4.5625 1.0625 C-1.18424326 1.41577477 -1.18424326 1.41577477 0 0 Z " fill="#68420C" transform="translate(76,36)"/>
<path d="M0 0 C0.99 0.33 1.98 0.66 3 1 C1.02 1.99 1.02 1.99 -1 3 C-1 4.65 -1 6.3 -1 8 C-1.66 7.67 -2.32 7.34 -3 7 C-3.66 7.66 -4.32 8.32 -5 9 C-4.5206753 4.68607774 -3.2542015 2.83430453 0 0 Z " fill="#EFDAAD" transform="translate(84,25)"/>
<path d="M0 0 C1.32 0 2.64 0 4 0 C4.33 1.98 4.66 3.96 5 6 C1.83884224 4.63016497 1.0072908 4.0109362 -1 1 C-0.67 0.67 -0.34 0.34 0 0 Z " fill="#E8CF04" transform="translate(109,49)"/>
<path d="M0 0 C0.93065133 2.60582371 1.14917407 3.64198224 0.0625 6.25 C-0.4634375 7.11625 -0.4634375 7.11625 -1 8 C-1.99 8 -2.98 8 -4 8 C-3.40072174 4.64404172 -2.15377564 2.62198774 0 0 Z " fill="#A1805D" transform="translate(84,34)"/>
<path d="M0 0 C1.65 0 3.3 0 5 0 C4.67 0.99 4.34 1.98 4 3 C3.34 3 2.68 3 2 3 C2 3.99 2 4.98 2 6 C1.01 5.67 0.02 5.34 -1 5 C-0.67 3.35 -0.34 1.7 0 0 Z " fill="#756D60" transform="translate(103,0)"/>
<path d="M0 0 C0.66 0.99 1.32 1.98 2 3 C-0.64 4.65 -3.28 6.3 -6 8 C-4.21844267 4.43688534 -2.83236991 2.64354525 0 0 Z " fill="#754A34" transform="translate(34,84)"/>
<path d="M0 0 C0.66 0 1.32 0 2 0 C1.34 2.97 0.68 5.94 0 9 C-0.66 9 -1.32 9 -2 9 C-1.125 1.125 -1.125 1.125 0 0 Z " fill="#492B1B" transform="translate(81,53)"/>
<path d="M0 0 C0.66 0 1.32 0 2 0 C2 2.64 2 5.28 2 8 C2.66 8 3.32 8 4 8 C3.67 8.99 3.34 9.98 3 11 C2.34 10.67 1.68 10.34 1 10 C0.5859375 7.71484375 0.5859375 7.71484375 0.375 4.9375 C0.30023438 4.01839844 0.22546875 3.09929687 0.1484375 2.15234375 C0.09945312 1.44207031 0.05046875 0.73179688 0 0 Z " fill="#A98300" transform="translate(36,79)"/>
<path d="M0 0 C0.66 0 1.32 0 2 0 C1.67 2.31 1.34 4.62 1 7 C1.66 7.33 2.32 7.66 3 8 C2.67 8.66 2.34 9.32 2 10 C1.01 9.67 0.02 9.34 -1 9 C-2.2676439 6.26969007 -2.04311598 5.12647354 -1.0625 2.25 C-0.711875 1.5075 -0.36125 0.765 0 0 Z " fill="#4A2B18" transform="translate(85,68)"/>
<path d="M0 0 C1.77174819 0.08723378 3.54247377 0.19541655 5.3125 0.3125 C6.29863281 0.37050781 7.28476563 0.42851563 8.30078125 0.48828125 C11.24384457 1.04622813 12.18182999 1.68540132 14 4 C9.02906176 3.58846263 4.55491614 3.20399168 0 1 C0 0.67 0 0.34 0 0 Z " fill="#150C07" transform="translate(92,57)"/>
<path d="M0 0 C0.33 0 0.66 0 1 0 C1 1.65 1 3.3 1 5 C1.66 5 2.32 5 3 5 C3.33 6.98 3.66 8.96 4 11 C3.01 11 2.02 11 1 11 C-0.17571451 7.32589215 -0.07366746 3.83070817 0 0 Z " fill="#8A0000" transform="translate(104,109)"/>
<path d="M0 0 C1.875 0.1875 1.875 0.1875 4 1 C5.25 3.5625 5.25 3.5625 6 6 C4.35 6 2.7 6 1 6 C0.67 4.02 0.34 2.04 0 0 Z " fill="#392405" transform="translate(63,103)"/>
<path d="M0 0 C1.98 0.66 3.96 1.32 6 2 C5.01 2.33 4.02 2.66 3 3 C2.26676204 5.01508358 2.26676204 5.01508358 2 7 C0 4 0 4 0 0 Z " fill="#BFB2A8" transform="translate(104,53)"/>
<path d="M0 0 C2.5 1.8125 2.5 1.8125 5 4 C5 4.99 5 5.98 5 7 C5.99 7.33 6.98 7.66 8 8 C6.02 8.33 4.04 8.66 2 9 C2.33 8.01 2.66 7.02 3 6 C2.04701223 4.63266972 1.04625409 3.29735507 0 2 C0 1.34 0 0.68 0 0 Z " fill="#943320" transform="translate(59,13)"/>
<path d="M0 0 C0.66 0 1.32 0 2 0 C2.66 1.65 3.32 3.3 4 5 C2.35 5.33 0.7 5.66 -1 6 C-0.67 4.02 -0.34 2.04 0 0 Z " fill="#613D2B" transform="translate(105,4)"/>
<path d="M0 0 C1.1725131 0.95117134 2.33787015 1.91117009 3.5 2.875 C4.47453125 3.67550781 4.47453125 3.67550781 5.46875 4.4921875 C5.9740625 4.98976563 6.479375 5.48734375 7 6 C7 6.66 7 7.32 7 8 C3.34683329 6.75023244 2.21934164 6.32901247 0 3 C0 2.01 0 1.02 0 0 Z " fill="#42403F" transform="translate(8,111)"/>
<path d="M0 0 C-0.33 0.99 -0.66 1.98 -1 3 C-1.61875 2.814375 -2.2375 2.62875 -2.875 2.4375 C-5.04160178 1.76313824 -5.04160178 1.76313824 -7 3 C-7 2.01 -7 1.02 -7 0 C-4.3333581 -1.33332095 -2.83319697 -0.67102033 0 0 Z " fill="#8D8250" transform="translate(110,28)"/>
<path d="M0 0 C0.33 0.66 0.66 1.32 1 2 C0.06421005 4.35981813 -0.93347808 6.69631264 -2 9 C-2.99 8.67 -3.98 8.34 -5 8 C-3.35 5.36 -1.7 2.72 0 0 Z " fill="#644E3D" transform="translate(23,88)"/>
<path d="M0 0 C3.16115776 1.36983503 3.9927092 1.9890638 6 5 C5.01 5.495 5.01 5.495 4 6 C2 4.6875 2 4.6875 0 3 C0 2.01 0 1.02 0 0 Z " fill="#E6DDDB" transform="translate(101,68)"/>
<path d="M0 0 C0.66 0.33 1.32 0.66 2 1 C0.02 5.455 0.02 5.455 -2 10 C-3.43088528 7.13822943 -2.59991697 5.06624227 -2 2 C-1.34 2 -0.68 2 0 2 C0 1.34 0 0.68 0 0 Z " fill="#362112" transform="translate(85,42)"/>
<path d="M0 0 C0 0.99 0 1.98 0 3 C1.32 3.66 2.64 4.32 4 5 C1.36 5.66 -1.28 6.32 -4 7 C-2.92598892 4.08482708 -2.22189824 2.22189824 0 0 Z " fill="#512402" transform="translate(40,33)"/>
<path d="M0 0 C-0.33 0.99 -0.66 1.98 -1 3 C-2.65 3.33 -4.3 3.66 -6 4 C-6.33 3.01 -6.66 2.02 -7 1 C-4.53721199 -0.231394 -2.7204945 -0.07159196 0 0 Z " fill="#EBD6A9" transform="translate(100,20)"/>
<path d="M0 0 C0.99 0 1.98 0 3 0 C1.92598892 2.91517292 1.22189824 4.77810176 -1 7 C-1.04254356 5.00045254 -1.04080783 2.99958364 -1 1 C-0.67 0.67 -0.34 0.34 0 0 Z " fill="#9D7100" transform="translate(91,45)"/>
<path d="M0 0 C1.65 0.33 3.3 0.66 5 1 C4.01 1.66 3.02 2.32 2 3 C2.66 3.33 3.32 3.66 4 4 C2.35 4 0.7 4 -1 4 C-0.67 2.68 -0.34 1.36 0 0 Z " fill="#B99400" transform="translate(64,37)"/>
<path d="M0 0 C0.66 0 1.32 0 2 0 C2.33 0.99 2.66 1.98 3 3 C2.01 4.485 2.01 4.485 1 6 C0.01 5.67 -0.98 5.34 -2 5 C-2 2 -2 2 0 0 Z " fill="#D3BD94" transform="translate(91,21)"/>
<path d="M0 0 C0.66 0.33 1.32 0.66 2 1 C1.45276317 4.37462715 0.9451 6.08235 -1 9 C-2.0326802 6.21176345 -2.04509293 5.1322726 -1.0625 2.25 C-0.711875 1.5075 -0.36125 0.765 0 0 Z " fill="#5F5B57" transform="translate(106,11)"/>
</svg>
